<?xml version="1.0" standalone="no"?>
<!DOCTYPE svg PUBLIC "-//W3C//DTD SVG 20010904//EN"
 "http://www.w3.org/TR/2001/REC-SVG-20010904/DTD/svg10.dtd">
<svg version="1.0" xmlns="http://www.w3.org/2000/svg"
 width="902.000000pt" height="300.000000pt" viewBox="0 0 902.000000 300.000000"
 preserveAspectRatio="xMidYMid meet">

<g transform="translate(0.000000,300.000000) scale(0.100000,-0.100000)"
fill="#000000" stroke="none">
<path d="M6338 2493 c7 -3 16 -2 19 1 4 3 -2 6 -13 5 -11 0 -14 -3 -6 -6z"/>
<path d="M5015 2480 c-3 -5 1 -10 10 -10 9 0 13 5 10 10 -3 6 -8 10 -10 10 -2
0 -7 -4 -10 -10z"/>
<path d="M6175 2480 c-3 -5 3 -10 14 -10 12 0 21 5 21 10 0 6 -6 10 -14 10 -8
0 -18 -4 -21 -10z"/>
<path d="M2768 2473 c6 -2 18 -2 25 0 6 3 1 5 -13 5 -14 0 -19 -2 -12 -5z"/>
<path d="M3305 2470 c-4 -6 3 -10 14 -10 25 0 27 6 6 13 -8 4 -17 2 -20 -3z"/>
<path d="M5218 2474 c33 -15 -4 -38 -40 -25 -14 5 -31 3 -47 -5 -16 -9 -29
-10 -36 -4 -7 6 -15 7 -19 3 -10 -10 -118 -15 -112 -5 3 5 -6 14 -19 20 -15 7
-25 8 -25 2 0 -6 7 -10 16 -10 8 0 13 -4 9 -9 -6 -11 -92 -5 -109 7 -6 5 -18
9 -26 10 -8 0 -73 3 -143 6 -95 5 -127 4 -122 -4 5 -8 -6 -11 -36 -10 -75 3
-89 1 -89 -15 0 -8 -4 -15 -10 -15 -5 0 -10 5 -10 10 0 13 -33 13 -46 0 -15
-15 -85 -15 -124 0 -3 1 -8 2 -11 2 -59 -8 -220 -1 -214 8 4 6 -1 10 -10 10
-9 0 -13 -4 -10 -10 3 -5 1 -10 -4 -10 -6 0 -11 5 -11 10 0 6 -12 10 -27 9
-16 0 -22 -3 -15 -6 6 -2 12 -9 12 -14 0 -6 -4 -8 -9 -4 -30 18 -251 42 -249
26 2 -21 -5 -28 -32 -26 -16 1 -35 6 -42 11 -15 11 -32 11 -113 1 -117 -15
-149 -16 -162 -5 -9 7 -13 7 -13 -1 0 -6 -5 -11 -11 -11 -5 0 -7 5 -4 10 6 9
1 11 -37 14 -7 1 -12 -5 -10 -11 1 -8 -9 -13 -25 -13 -22 0 -25 2 -13 10 8 5
11 10 5 10 -5 0 -34 3 -63 6 -46 6 -51 4 -46 -10 6 -15 -2 -16 -72 -11 -44 4
-80 10 -82 16 -6 16 -20 10 -27 -11 -3 -11 -13 -20 -22 -20 -13 0 -13 3 -3 15
15 18 24 16 -120 21 -58 1 -150 5 -205 8 -58 2 -107 0 -118 -6 -15 -7 -22 -7
-28 3 -7 12 -9 12 -9 1 0 -10 -18 -13 -74 -10 -41 2 -72 0 -70 -4 3 -4 -29 -7
-70 -6 -48 1 -81 -4 -91 -12 -8 -7 -28 -10 -45 -8 -42 6 -33 -15 11 -24 21 -4
12 -5 -25 -2 -32 2 -64 8 -71 14 -16 13 -299 25 -291 11 4 -6 -20 -10 -68 -10
-56 0 -84 -5 -112 -20 -38 -21 -39 -21 -10 -21 16 0 35 8 42 18 9 12 16 14 24
6 13 -13 -12 -44 -35 -44 -7 0 -15 -6 -18 -12 -2 -8 -20 -13 -43 -13 -21 0
-40 -4 -41 -10 -1 -6 12 -9 30 -7 26 3 30 1 20 -9 -7 -7 -23 -14 -35 -16 -31
-5 -34 -10 -15 -31 13 -15 14 -21 4 -31 -9 -11 -9 -14 0 -18 10 -3 10 -9 0
-24 -9 -15 -9 -21 0 -27 7 -4 14 -34 16 -65 3 -32 7 -61 11 -64 13 -14 5 -34
-11 -29 -10 3 -66 7 -125 11 -81 4 -108 2 -108 -7 0 -9 -3 -9 -12 0 -16 16
-51 15 -66 0 -10 -10 -17 -10 -33 0 -12 8 -18 9 -15 3 10 -16 -13 -24 -30 -10
-12 9 -19 9 -38 0 -19 -11 -23 -21 -23 -63 -1 -28 -7 -61 -14 -74 -13 -25 -39
-33 -40 -11 -1 29 -17 -33 -23 -93 -4 -36 -12 -75 -18 -87 -8 -16 -8 -26 0
-36 9 -10 9 -16 0 -25 -8 -8 -8 -15 2 -27 11 -13 10 -18 -4 -33 -23 -26 -20
-42 8 -42 23 0 54 -25 44 -36 -3 -2 -17 0 -31 5 -15 6 -29 6 -32 2 -9 -15 19
-28 57 -25 28 2 37 -2 41 -17 3 -11 14 -19 26 -19 13 0 21 -6 21 -16 0 -10 6
-14 15 -10 8 3 15 2 15 -3 0 -16 -44 -20 -60 -6 -9 8 -27 15 -41 14 -15 0 -18
-3 -9 -6 8 -3 20 -11 25 -18 11 -13 71 -24 143 -24 26 -1 41 -5 37 -11 -6 -10
24 -14 79 -10 40 3 30 -20 -21 -45 -23 -11 -42 -23 -42 -27 -1 -5 -1 -12 -1
-17 0 -5 -7 -17 -17 -26 -12 -13 -13 -19 -4 -24 9 -6 5 -15 -13 -32 -19 -19
-22 -27 -14 -42 6 -12 6 -17 0 -13 -5 3 -12 -8 -14 -25 -4 -25 -1 -33 14 -37
10 -2 18 -6 18 -9 0 -9 -45 -42 -57 -43 -7 0 -13 -4 -13 -8 0 -5 13 -7 29 -4
16 2 32 -1 35 -7 4 -6 0 -11 -8 -11 -9 0 -15 -6 -13 -12 1 -8 -9 -12 -28 -11
l-30 2 30 -14 c17 -8 51 -14 78 -15 34 0 47 -4 47 -14 0 -8 -8 -17 -18 -19
-10 -3 -5 -5 12 -6 21 -1 27 -5 22 -16 -3 -8 0 -15 6 -15 6 0 21 -11 34 -25
l23 -25 -27 -1 c-23 0 -24 -1 -7 -8 23 -9 55 -3 55 10 0 5 9 9 19 9 11 0 23 5
26 10 4 6 10 8 15 5 5 -3 15 4 22 14 10 14 21 18 36 14 12 -3 20 -9 17 -13 -3
-4 2 -11 11 -14 10 -4 13 -13 9 -26 -4 -12 -2 -26 3 -33 6 -7 13 -37 16 -67 2
-30 6 -57 7 -60 1 -3 1 -9 0 -14 -1 -5 5 -3 14 4 13 11 18 10 30 -6 8 -10 15
-34 15 -51 0 -47 0 -46 17 -65 11 -12 20 -15 33 -8 18 10 48 8 94 -5 20 -5 31
-4 37 6 7 11 11 11 17 1 6 -9 28 -11 77 -7 67 5 282 18 318 19 9 0 17 4 17 8
0 4 9 8 20 8 11 0 30 6 41 12 17 11 23 11 26 0 3 -6 14 -12 24 -12 13 0 18 -4
13 -12 -4 -7 1 -5 12 4 15 13 27 16 50 9 16 -4 40 -5 54 -1 33 8 120 0 120
-11 0 -5 15 -9 34 -9 19 0 37 -4 41 -9 3 -6 18 -6 35 -1 30 8 82 7 183 -6 31
-4 53 -2 62 6 9 8 15 8 15 2 0 -10 859 -8 940 2 19 2 89 5 155 6 65 1 115 4
109 8 -17 12 -9 40 9 31 1 -1 20 -3 42 -4 61 -3 115 -16 109 -26 -3 -5 15 -9
40 -9 34 0 46 4 46 15 0 9 6 12 15 9 8 -4 12 -10 9 -15 -3 -5 2 -9 11 -9 11 0
15 5 12 14 -4 10 5 16 31 21 53 11 309 13 324 3 12 -7 -11 -12 -50 -11 -10 1
-9 -4 3 -17 11 -12 30 -18 58 -17 49 1 106 -11 125 -25 8 -7 12 -7 12 2 0 8 4
9 13 3 6 -5 22 -10 35 -11 16 0 22 5 22 20 0 13 5 18 14 15 10 -4 13 -1 9 9
-4 10 0 12 11 8 8 -3 14 -11 13 -16 -2 -11 42 -19 57 -10 5 3 28 6 50 7 23 0
52 4 65 9 16 6 21 5 17 -3 -4 -6 -3 -11 3 -11 5 0 13 5 16 10 3 6 1 10 -4 10
-6 0 -11 4 -11 8 0 4 9 8 19 8 11 0 19 -4 18 -9 -1 -5 4 -12 12 -15 9 -3 11 0
7 9 -4 8 1 4 12 -9 23 -25 37 -29 29 -8 -4 10 5 12 36 10 67 -5 111 -15 119
-27 5 -8 8 -6 8 5 0 9 -8 18 -17 20 -10 3 2 5 27 5 38 0 41 -1 20 -9 -30 -11
-12 -27 26 -22 13 1 27 -2 30 -7 3 -6 11 -6 17 -1 7 5 47 5 92 1 105 -10 206
-10 180 0 -12 5 15 10 75 14 57 4 97 12 102 20 5 8 11 8 16 2 6 -9 28 -11 42
-5 19 9 67 4 78 -9 12 -14 13 -14 9 0 -4 12 1 15 19 13 13 -1 24 3 24 9 0 9 2
9 8 0 4 -6 27 -14 51 -17 25 -3 48 -11 53 -18 6 -10 8 -8 8 5 0 19 16 23 22 5
3 -7 30 -13 74 -14 38 -1 98 -3 134 -4 74 -2 299 21 317 33 7 4 22 6 35 4 13
-2 17 -2 11 0 -14 5 -18 32 -5 34 4 1 23 3 43 4 19 1 41 5 48 9 7 5 18 0 27
-10 14 -17 15 -17 10 -1 -7 23 6 22 22 -3 7 -11 20 -20 30 -20 14 0 15 -2 2
-10 -11 -7 -6 -10 22 -10 28 0 36 4 32 14 -3 7 2 20 10 29 9 9 16 20 16 26 0
6 5 11 10 11 6 0 10 7 10 15 0 10 10 15 34 15 44 0 96 11 96 20 0 4 -12 5 -26
2 -19 -3 -25 -1 -20 7 4 6 1 11 -9 11 -9 0 -13 5 -10 10 3 6 18 7 33 4 26 -6
25 -5 -8 20 -34 26 -34 27 -12 33 17 4 20 8 11 14 -10 6 -9 10 6 15 11 4 24
12 28 18 6 8 10 7 14 -1 6 -15 49 -17 58 -3 9 15 38 13 29 -3 -4 -6 2 -4 13 5
22 20 43 24 43 8 0 -5 9 -10 20 -10 11 0 20 5 20 10 0 6 7 10 15 10 8 0 15 5
15 10 0 6 -3 10 -8 10 -11 0 1 91 15 115 10 17 15 18 32 7 12 -7 21 -9 20 -5
-1 5 0 10 1 13 3 7 11 91 10 118 0 13 8 34 17 48 14 22 14 27 2 35 -11 7 -12
12 -2 27 8 13 8 23 1 30 -7 7 -5 18 6 34 18 28 13 38 -20 38 -12 0 -25 7 -28
16 -9 24 -8 24 20 13 31 -11 39 -7 30 16 -4 12 -15 15 -47 11 -35 -4 -42 -1
-46 15 -3 10 -13 19 -23 19 -16 0 -30 18 -30 41 0 15 27 10 34 -6 3 -9 17 -15
33 -14 17 0 22 3 13 6 -8 4 -19 12 -25 19 -5 7 -26 14 -45 15 -19 2 -39 5 -45
8 -5 3 -29 4 -53 2 -30 -2 -42 1 -38 8 5 7 -11 11 -48 11 -52 0 -70 10 -46 25
6 4 7 12 4 18 -5 9 -4 9 5 1 9 -8 21 -7 47 5 18 8 34 19 34 24 0 4 -5 5 -11 1
-6 -3 -3 5 6 20 10 14 22 26 27 26 6 0 5 6 -2 15 -9 11 -8 18 9 36 16 17 18
26 10 42 -8 14 -8 18 0 13 7 -5 11 2 11 18 0 13 6 27 13 29 7 4 3 8 -10 12
-13 4 -23 10 -23 14 0 9 38 41 50 41 5 0 11 3 14 8 2 4 -13 6 -35 4 -24 -3
-39 0 -39 7 0 6 7 11 15 11 8 0 15 7 15 15 0 11 7 14 25 9 17 -4 25 -2 25 7 0
10 -19 15 -67 17 -37 2 -72 6 -78 10 -15 9 33 20 97 21 31 1 60 6 64 12 4 6
21 8 43 5 20 -3 29 -2 21 2 -38 18 -12 43 40 38 14 -1 33 2 43 7 13 6 25 3 40
-10 11 -10 17 -12 13 -5 -4 6 -4 17 0 23 4 7 11 2 18 -13 6 -12 23 -25 36 -27
23 -3 24 -4 5 -12 -19 -7 -19 -8 3 -8 12 -1 22 4 22 9 0 6 5 10 11 10 5 0 7
-4 4 -10 -3 -5 -2 -10 3 -10 6 0 13 11 16 25 4 14 13 25 21 25 9 0 12 6 9 15
-4 9 0 15 10 15 9 0 15 6 14 12 -2 8 19 15 62 19 36 4 68 5 71 3 3 -2 6 3 6
10 0 8 -9 11 -24 8 -13 -2 -23 1 -23 7 0 6 -8 11 -17 11 -15 0 -16 2 -3 10 8
5 26 7 40 4 20 -4 17 0 -15 20 -36 24 -38 27 -18 32 18 5 20 10 12 36 -4 17
-6 34 -4 39 3 4 -5 15 -17 24 -18 12 -20 17 -10 24 11 7 11 9 -2 14 -9 4 -20
17 -25 30 -6 15 -20 26 -39 30 -16 3 -36 13 -45 21 -8 8 -18 12 -21 8 -4 -3
-11 0 -16 8 -7 12 -15 13 -39 3 -29 -10 -30 -10 -21 8 6 10 18 19 26 19 8 0
13 4 10 9 -4 5 -1 11 6 13 7 3 -5 5 -27 6 -54 2 -95 12 -95 22 0 5 -8 8 -17 8
-10 0 -31 2 -48 6 -24 6 -27 5 -12 -4 42 -27 8 -37 -47 -15 -13 6 -17 5 -13
-2 9 -14 -27 -23 -44 -12 -20 13 -63 11 -77 -3 -9 -9 -12 -8 -12 5 0 13 -9 17
-36 17 -25 0 -33 -3 -28 -12 6 -10 5 -10 -7 -1 -19 15 -269 27 -269 13 0 -6
-16 -10 -37 -9 -21 1 -66 -1 -100 -5 -44 -6 -63 -5 -63 3 0 6 14 11 32 11 28
0 30 2 18 14 -10 9 -51 16 -119 19 -57 4 -107 10 -110 15 -3 5 -19 9 -36 9
-16 -1 -55 1 -85 5 -30 4 -44 3 -31 0 32 -10 39 -32 11 -32 -12 0 -18 -4 -15
-10 3 -5 -3 -10 -14 -10 -12 0 -21 7 -21 16 0 11 -6 13 -19 9 -11 -3 -22 -1
-26 5 -3 5 -14 10 -23 10 -15 0 -15 -2 -2 -10 11 -7 3 -10 -28 -10 -30 0 -41
-3 -36 -12 4 -6 -3 -4 -16 5 -17 12 -27 13 -46 5 -17 -8 -34 -8 -59 -1 -19 6
-33 7 -29 2 3 -5 -7 -9 -21 -9 -18 0 -24 -4 -19 -12 10 -17 -28 12 -39 30 -11
16 -28 16 -21 -1 3 -8 -6 -13 -25 -15 -23 -2 -29 1 -25 12 3 8 13 12 22 9 15
-4 15 -3 2 6 -11 8 -18 7 -27 -6 -7 -9 -10 -19 -8 -24 3 -4 1 -10 -4 -13 -5
-3 -11 0 -14 7 -3 8 -22 14 -45 15 -22 1 -51 6 -65 11 -14 5 -28 7 -31 4 -13
-13 -5 -22 22 -26 15 -2 8 -4 -15 -3 -26 1 -38 5 -32 11 17 17 9 22 -33 23
-24 1 -116 4 -205 7 -111 4 -163 3 -163 -5 0 -6 -25 -10 -60 -10 -33 0 -60 4
-60 9 0 5 -10 8 -22 8 -13 -1 -36 2 -53 6 -16 3 -24 4 -17 1z m1346 -30 c3 -8
2 -12 -4 -9 -6 3 -10 10 -10 16 0 14 7 11 14 -7z m-1859 -12 c-3 -3 -11 0 -18
7 -9 10 -8 11 6 5 10 -3 15 -9 12 -12z m965 8 c8 -5 11 -10 5 -10 -5 0 -17 5
-25 10 -8 5 -10 10 -5 10 6 0 17 -5 25 -10z m-2510 -10 c13 -8 13 -10 -2 -10
-9 0 -20 5 -23 10 -8 13 5 13 25 0z m1613 3 c-7 -2 -19 -2 -25 0 -7 3 -2 5 12
5 14 0 19 -2 13 -5z m52 -11 c-3 -3 -11 0 -18 7 -9 10 -8 11 6 5 10 -3 15 -9
12 -12z m985 9 c0 -5 -9 -7 -20 -4 -11 3 -20 7 -20 9 0 2 9 4 20 4 11 0 20 -4
20 -9z m-2983 -7 c-3 -3 -12 -4 -19 -1 -8 3 -5 6 6 6 11 1 17 -2 13 -5z m33 2
c0 -3 -4 -8 -10 -11 -5 -3 -10 -1 -10 4 0 6 5 11 10 11 6 0 10 -2 10 -4z
m3410 -18 c0 -6 -10 -8 -22 -4 -13 3 -33 6 -46 6 -13 0 -21 4 -18 8 7 11 86 2
86 -10z m473 -5 c-4 -10 -14 -13 -32 -8 -31 8 -35 11 -27 23 3 5 18 7 35 4 21
-3 28 -8 24 -19z m-4523 7 c0 -16 -44 -30 -52 -17 -4 7 -2 15 5 19 17 11 47
10 47 -2z m1965 0 c3 -5 1 -10 -4 -10 -6 0 -11 5 -11 10 0 6 2 10 4 10 3 0 8
-4 11 -10z m845 6 c0 -2 -7 -6 -15 -10 -8 -3 -15 -1 -15 4 0 6 7 10 15 10 8 0
15 -2 15 -4z m45 -6 c3 -5 -1 -10 -9 -10 -8 0 -18 5 -21 10 -3 6 1 10 9 10 8
0 18 -4 21 -10z m1095 6 c0 -3 -4 -8 -10 -11 -5 -3 -10 -1 -10 4 0 6 5 11 10
11 6 0 10 -2 10 -4z m-970 -16 c0 -5 -2 -10 -4 -10 -3 0 -8 5 -11 10 -3 6 -1
10 4 10 6 0 11 -4 11 -10z m1320 0 c11 -7 7 -10 -17 -10 -17 0 -35 5 -38 10
-8 13 35 13 55 0z m90 0 c0 -5 -5 -10 -11 -10 -5 0 -7 5 -4 10 3 6 8 10 11 10
2 0 4 -4 4 -10z m-4625 -28 c-8 -8 -25 10 -19 20 4 6 9 5 15 -3 4 -7 6 -15 4
-17z m-48 12 c-3 -3 -12 -4 -19 -1 -8 3 -5 6 6 6 11 1 17 -2 13 -5z m-307 -8
c0 -2 -7 -7 -16 -10 -8 -3 -12 -2 -9 4 6 10 25 14 25 6z m6042 -4 c11 -4 14
-12 9 -20 -6 -9 -12 -8 -26 8 -18 20 -13 24 17 12z m-102 -22 c11 -8 7 -10
-17 -8 -17 1 -29 6 -27 10 7 11 26 10 44 -2z m-6000 -24 c0 -11 -19 -15 -25
-6 -3 5 1 10 9 10 9 0 16 -2 16 -4z m-85 -76 c-3 -5 -11 -10 -16 -10 -6 0 -7
5 -4 10 3 6 11 10 16 10 6 0 7 -4 4 -10z m1675 -227 c-54 -55 -81 -135 -89
-268 -6 -95 -11 -117 -36 -164 -45 -82 -172 -172 -280 -197 -28 -7 -27 -5 15
27 56 42 100 124 100 186 0 23 -5 73 -11 110 -9 50 -9 79 0 109 22 81 116 158
256 211 83 30 88 29 45 -14z m-1637 -27 c4 -10 0 -12 -14 -9 -22 6 -26 23 -5
23 8 0 16 -6 19 -14z m4537 -81 l0 -75 41 22 c35 18 45 19 78 9 53 -15 87 -53
101 -109 18 -78 -9 -161 -65 -198 -31 -21 -99 -20 -131 1 -21 14 -24 14 -24 0
0 -12 -12 -15 -55 -15 -54 0 -55 0 -55 30 0 19 5 30 14 30 18 0 21 23 21 172
0 110 -3 129 -18 140 -15 11 -17 33 -8 66 1 1 24 2 51 2 l50 0 0 -75z m-170
30 c0 -34 -1 -35 -40 -35 -39 0 -40 1 -40 35 0 34 1 35 40 35 39 0 40 -1 40
-35z m-1967 5 c25 -20 25 -20 30 0 4 15 14 20 36 20 l31 0 0 -65 c0 -65 0 -65
-28 -65 -18 0 -38 10 -56 29 -16 16 -40 32 -54 36 -52 13 -111 -36 -83 -69 6
-7 46 -19 88 -26 68 -11 82 -17 115 -50 31 -31 38 -45 38 -76 0 -45 -28 -95
-66 -120 -38 -26 -112 -23 -157 5 -37 23 -37 23 -37 2 0 -17 -6 -21 -35 -21
l-35 0 0 70 0 70 31 0 c22 0 40 -10 63 -35 28 -29 40 -35 75 -35 28 0 47 6 61
20 43 43 14 73 -84 89 -85 15 -102 23 -126 64 -35 57 -19 125 39 160 38 24
122 22 154 -3z m1712 10 c56 -13 85 -49 85 -106 0 -34 -6 -51 -24 -69 -19 -19
-22 -27 -12 -32 22 -13 36 -50 36 -92 0 -34 3 -41 20 -41 16 0 20 -7 20 -35
l0 -35 -60 0 -60 0 0 70 c0 88 -17 110 -85 110 l-45 0 0 -55 c0 -42 3 -55 15
-55 10 0 15 -11 15 -35 l0 -35 -75 0 -75 0 0 35 c0 24 5 35 15 35 13 0 15 22
15 140 0 118 -2 140 -15 140 -10 0 -15 11 -15 35 l0 35 103 0 c56 0 120 -5
142 -10z m1885 -50 c0 -5 -7 -10 -15 -10 -8 0 -15 5 -15 10 0 6 7 10 15 10 8
0 15 -4 15 -10z m-6015 -20 c-27 -12 -43 -12 -25 0 8 5 22 9 30 9 10 0 8 -3
-5 -9z m2843 -43 c38 -35 55 -78 55 -137 0 -97 -51 -160 -130 -160 -24 0 -55
7 -68 16 -25 16 -25 16 -25 -20 0 -25 4 -36 15 -36 10 0 15 -10 15 -30 l0 -31
-67 3 c-66 3 -68 4 -71 31 -2 19 1 27 12 27 14 0 16 21 16 150 0 129 -2 150
-16 150 -11 0 -14 8 -12 28 3 25 7 27 56 30 40 2 52 0 52 -11 0 -12 7 -11 38
5 45 23 95 17 130 -15z m293 13 c45 -21 54 -51 54 -184 l0 -121 -32 -3 c-26
-3 -33 1 -33 14 0 15 -2 15 -25 0 -69 -45 -165 2 -165 81 0 62 30 82 163 108
43 8 33 48 -15 60 -22 6 -32 2 -51 -19 -16 -17 -35 -26 -56 -26 -35 0 -38 8
-17 48 28 54 109 73 177 42z m549 -2 c48 -25 76 -69 82 -128 l3 -35 -108 -1
c-59 -1 -110 -4 -113 -7 -10 -10 26 -66 47 -72 30 -10 67 2 79 25 8 15 21 20
51 20 37 0 40 -2 33 -22 -16 -54 -70 -88 -141 -88 -63 0 -109 28 -133 83 -40
88 -10 184 70 225 24 12 54 22 65 22 11 0 41 -10 65 -22z m-333 -8 l6 -21 14
21 c10 14 25 20 54 20 38 0 39 -1 39 -35 0 -33 -2 -35 -35 -35 -58 0 -75 -26
-75 -115 0 -60 3 -75 15 -75 10 0 15 -10 15 -30 l0 -30 -70 0 -70 0 0 30 c0
20 5 30 15 30 12 0 15 18 15 100 0 82 -3 100 -15 100 -10 0 -15 10 -15 30 0
29 1 30 51 30 43 0 52 -3 56 -20z m1033 -105 c0 -102 3 -127 15 -131 9 -4 15
-19 15 -36 l0 -29 -67 3 c-66 3 -68 4 -71 31 -2 19 1 27 12 27 17 0 17 0 18
114 1 60 -2 81 -13 85 -13 6 -15 13 -11 49 1 8 19 12 52 12 l50 0 0 -125z
m-2634 -108 c19 -42 29 -84 32 -129 5 -88 -23 -149 -112 -243 -74 -78 -124
-167 -135 -241 l-7 -49 -28 45 c-51 79 -68 129 -68 196 0 85 28 131 128 209
106 82 139 135 139 226 0 80 9 78 51 -14z m-2296 -122 c0 -9 -6 -12 -15 -9 -8
4 -15 10 -15 15 0 5 7 9 15 9 8 0 15 -7 15 -15z m3068 -112 l3 -63 -36 0 c-32
0 -35 2 -35 30 l0 30 -65 0 -65 0 0 -50 0 -50 66 0 65 0 -3 -32 c-3 -33 -3
-33 -65 -36 l-63 -3 0 -54 0 -55 65 0 65 0 0 35 c0 33 2 35 35 35 l35 0 0 -65
0 -65 -160 0 -160 0 0 30 c0 20 5 30 15 30 13 0 15 22 15 140 0 118 -2 140
-15 140 -10 0 -15 11 -15 35 l0 36 158 -3 157 -3 3 -62z m-2993 27 c-3 -5 -10
-10 -16 -10 -5 0 -9 5 -9 10 0 6 7 10 16 10 8 0 12 -4 9 -10z m3618 -74 c51
-31 78 -126 57 -201 -26 -92 -127 -136 -194 -84 l-26 20 0 -36 c0 -22 6 -38
15 -41 9 -4 15 -19 15 -35 l0 -29 -65 0 -65 0 0 29 c0 16 6 31 15 35 12 4 15
30 15 146 0 116 -3 142 -15 146 -9 4 -15 19 -15 35 0 28 2 29 50 29 39 0 50
-3 50 -16 0 -15 2 -15 23 -1 43 28 97 29 140 3z m548 -2 c35 -17 58 -55 68
-109 l8 -45 -113 0 c-73 0 -114 -4 -114 -10 0 -20 29 -68 45 -74 33 -12 64 -5
83 19 15 18 29 25 56 25 42 0 43 -4 16 -47 -28 -47 -72 -66 -137 -61 -44 4
-60 11 -87 37 -61 59 -68 158 -17 230 12 17 23 31 24 31 1 0 20 7 42 15 42 15
82 12 126 -11z m2290 12 c5 3 9 0 9 -6 0 -15 -23 -7 -26 8 -1 7 0 8 3 2 2 -5
9 -8 14 -4z m-3309 -36 c13 -22 26 -40 29 -40 4 0 18 18 33 40 23 36 31 40 66
40 38 0 40 -2 40 -30 0 -19 -5 -30 -14 -30 -16 0 -76 -71 -76 -90 0 -17 59
-100 76 -107 8 -3 14 -16 14 -29 0 -21 -4 -24 -40 -24 -37 0 -42 4 -68 46 -31
49 -35 48 -66 -13 -14 -29 -21 -33 -56 -33 -36 0 -40 3 -40 25 0 14 4 25 10
25 5 0 26 24 46 54 l36 55 -32 45 c-17 25 -37 46 -45 46 -10 0 -15 10 -15 30
0 28 2 30 40 30 36 0 42 -4 62 -40z m675 21 c5 -19 5 -19 24 0 11 11 33 19 54
19 33 0 35 -2 35 -35 0 -33 -2 -35 -33 -35 -18 0 -43 -7 -55 -16 -20 -13 -22
-24 -22 -95 0 -64 3 -79 15 -79 9 0 15 -9 15 -25 0 -24 -2 -25 -70 -25 -68 0
-70 1 -70 25 0 16 6 25 15 25 12 0 15 18 15 100 0 82 -3 100 -15 100 -10 0
-15 10 -15 30 0 29 1 30 51 30 42 0 52 -3 56 -19z m631 3 c20 -14 22 -14 22 0
0 11 10 16 30 16 29 0 30 -1 30 -50 0 -47 -1 -50 -26 -50 -16 0 -36 11 -50 25
-36 39 -110 31 -102 -11 2 -13 18 -21 63 -29 99 -18 125 -41 125 -109 0 -22
-9 -45 -24 -63 -21 -24 -31 -28 -79 -28 -40 0 -61 5 -76 19 -19 17 -21 17 -21
3 0 -12 -9 -17 -30 -17 -29 0 -30 1 -30 50 0 47 1 50 26 50 16 0 36 -11 50
-25 38 -41 114 -31 114 16 0 19 -7 22 -92 39 -96 19 -129 91 -69 151 24 23 38
29 73 29 24 0 54 -7 66 -16z m298 1 c25 -19 34 -19 34 0 0 9 9 15 25 15 23 0
25 -3 25 -50 0 -47 -1 -50 -26 -50 -16 0 -34 10 -46 25 -22 29 -78 35 -98 10
-21 -26 -5 -39 66 -52 55 -10 74 -18 97 -43 38 -43 36 -83 -7 -126 -41 -41
-92 -46 -143 -14 -27 16 -33 17 -33 5 0 -10 -10 -15 -30 -15 -29 0 -30 1 -30
50 0 49 0 50 31 50 21 0 37 -8 51 -25 23 -29 77 -34 102 -9 31 31 13 49 -59
59 -68 10 -100 28 -115 65 -15 36 0 82 34 105 27 19 97 19 122 0z m1764 -55
c0 -5 -4 -10 -9 -10 -6 0 -13 5 -16 10 -3 6 1 10 9 10 9 0 16 -4 16 -10z m78
-89 c3 -8 -1 -12 -9 -9 -7 2 -15 10 -17 17 -3 8 1 12 9 9 7 -2 15 -10 17 -17z
m-1608 -110 c0 -35 -3 -39 -28 -43 -44 -6 -52 0 -52 43 0 39 0 39 40 39 40 0
40 0 40 -39z m-4713 -257 c-3 -3 -12 -4 -19 -1 -8 3 -5 6 6 6 11 1 17 -2 13
-5z m97 -25 c-3 -5 -10 -7 -15 -3 -5 3 -7 10 -3 15 3 5 10 7 15 3 5 -3 7 -10
3 -15z m3456 -321 c0 -5 -11 -8 -24 -8 -18 0 -24 5 -23 18 1 15 5 17 24 8 13
-6 23 -14 23 -18z m2040 12 c0 -5 -4 -10 -9 -10 -6 0 -13 5 -16 10 -3 6 1 10
9 10 9 0 16 -4 16 -10z m-2017 -15 c-3 -9 -8 -14 -10 -11 -3 3 -2 9 2 15 9 16
15 13 8 -4z m326 11 c-11 -9 -69 -14 -69 -6 0 6 17 10 37 10 20 0 34 -2 32 -4z
m891 -6 c0 -5 -4 -10 -9 -10 -6 0 -13 5 -16 10 -3 6 1 10 9 10 9 0 16 -4 16
-10z"/>
<path d="M6089 1791 c-21 -16 -24 -28 -24 -81 0 -53 3 -65 24 -81 56 -46 111
-3 111 85 0 85 -55 122 -111 77z"/>
<path d="M5510 1844 l0 -57 50 5 c57 6 80 21 80 54 0 32 -36 54 -87 54 l-43 0
0 -56z"/>
<path d="M4203 1784 c-23 -23 -25 -31 -21 -81 4 -43 10 -61 28 -75 54 -43 110
-2 110 82 0 89 -62 129 -117 74z"/>
<path d="M4565 1693 c-25 -6 -55 -32 -55 -48 0 -16 33 -45 52 -45 26 0 58 33
64 68 6 29 4 32 -17 31 -13 -1 -33 -4 -44 -6z"/>
<path d="M5080 1790 c-33 -33 -24 -40 45 -40 37 0 65 4 65 10 0 19 -40 50 -65
50 -14 0 -34 -9 -45 -20z"/>
<path d="M4523 1295 c-46 -32 -38 -148 11 -175 59 -31 113 25 103 107 -8 74
-61 105 -114 68z"/>
<path d="M5077 1292 c-31 -34 -21 -42 48 -42 70 0 82 11 47 43 -25 22 -75 21
-95 -1z"/>
<path d="M4847 2459 c7 -7 15 -10 18 -7 3 3 -2 9 -12 12 -14 6 -15 5 -6 -5z"/>
<path d="M5905 2460 c3 -5 16 -10 28 -9 21 0 21 1 2 9 -28 12 -37 12 -30 0z"/>
<path d="M2990 2450 c0 -6 7 -10 15 -10 8 0 15 2 15 4 0 2 -7 6 -15 10 -8 3
-15 1 -15 -4z"/>
<path d="M3060 2450 c0 -5 5 -10 11 -10 5 0 7 5 4 10 -3 6 -8 10 -11 10 -2 0
-4 -4 -4 -10z"/>
<path d="M3645 2450 c-3 -5 -1 -10 4 -10 6 0 11 5 11 10 0 6 -2 10 -4 10 -3 0
-8 -4 -11 -10z"/>
<path d="M2068 2443 c6 -2 18 -2 25 0 6 3 1 5 -13 5 -14 0 -19 -2 -12 -5z"/>
<path d="M4148 2443 c7 -3 16 -2 19 1 4 3 -2 6 -13 5 -11 0 -14 -3 -6 -6z"/>
<path d="M7318 2443 c6 -2 18 -2 25 0 6 3 1 5 -13 5 -14 0 -19 -2 -12 -5z"/>
<path d="M6895 2430 c3 -5 8 -10 11 -10 2 0 4 5 4 10 0 6 -5 10 -11 10 -5 0
-7 -4 -4 -10z"/>
<path d="M7400 2430 c0 -5 5 -10 10 -10 6 0 10 5 10 10 0 6 -4 10 -10 10 -5 0
-10 -4 -10 -10z"/>
<path d="M2005 2410 c3 -5 11 -10 16 -10 6 0 7 5 4 10 -3 6 -11 10 -16 10 -6
0 -7 -4 -4 -10z"/>
<path d="M1480 2330 c0 -5 7 -7 15 -4 8 4 15 8 15 10 0 2 -7 4 -15 4 -8 0 -15
-4 -15 -10z"/>
<path d="M952 1421 c4 -13 18 -16 19 -4 0 4 -5 9 -11 12 -7 2 -11 -2 -8 -8z"/>
<path d="M7590 1321 c0 -5 5 -13 10 -16 6 -3 10 -2 10 4 0 5 -4 13 -10 16 -5
3 -10 2 -10 -4z"/>
<path d="M6190 459 c0 -5 9 -9 20 -9 11 0 20 2 20 4 0 2 -9 6 -20 9 -11 3 -20
1 -20 -4z"/>
<path d="M5428 453 c7 -3 16 -2 19 1 4 3 -2 6 -13 5 -11 0 -14 -3 -6 -6z"/>
<path d="M6288 453 c7 -3 16 -2 19 1 4 3 -2 6 -13 5 -11 0 -14 -3 -6 -6z"/>
<path d="M4998 443 c7 -3 16 -2 19 1 4 3 -2 6 -13 5 -11 0 -14 -3 -6 -6z"/>
<path d="M5212 441 c4 -13 18 -16 19 -4 0 4 -5 9 -11 12 -7 2 -11 -2 -8 -8z"/>
<path d="M6080 434 c0 -8 5 -12 10 -9 6 4 8 11 5 16 -9 14 -15 11 -15 -7z"/>
<path d="M6218 423 c7 -3 16 -2 19 1 4 3 -2 6 -13 5 -11 0 -14 -3 -6 -6z"/>
</g>
</svg>
