<?xml version="1.0" standalone="yes"?>
<svg xmlns="http://www.w3.org/2000/svg" width="470" height="292">
<path style="fill:#19131d; stroke:none;" d="M0 0L0 292L470 292L470 0L0 0z"/>
<path style="fill:#a7a2a4; stroke:none;" d="M93.6667 84.3333L94.3333 84.6667L93.6667 84.3333M90 85L90 86L92 87L87 92C89.5642 90.12 93.2162 87.6491 90 85z"/>
<path style="fill:#fdfcfc; stroke:none;" d="M92.6667 85.3333L93.3333 85.6667L92.6667 85.3333z"/>
<path style="fill:#a7a2a4; stroke:none;" d="M87.6667 86.3333L88.3333 86.6667L87.6667 86.3333z"/>
<path style="fill:#fdfcfc; stroke:none;" d="M43 159L43 160C56.817 155.326 70.7581 149.023 77.2006 135C81.0679 126.582 79.0337 117.79 80.6157 109C82.2893 99.7012 86.8126 93.5937 92 86C78.8193 87.9466 59.8082 96.8156 56.5293 111C54.8519 118.257 57.6701 124.859 57.9599 132C58.4412 143.862 52.0805 152.081 43 159z"/>
<path style="fill:#a7a2a4; stroke:none;" d="M84.6667 87.3333L85.3333 87.6667L84.6667 87.3333M82 88L83 89L82 88M79.6667 89.3333L80.3333 89.6667L79.6667 89.3333M77 90L78 91L77 90M75 91L76 92L75 91M73 92L74 93L73 92M71 93L72 94L71 93M390 93C390.028 100.973 392.343 101.994 400 102L400 101L391 101L390 93z"/>
<path style="fill:#fdfcfc; stroke:none;" d="M391 93L391 101L400 101L400 93L391 93z"/>
<path style="fill:#a7a2a4; stroke:none;" d="M407 93L407 100L408 100L407 93z"/>
<path style="fill:#fdfcfc; stroke:none;" d="M408 93L408 100L411 100L411 135L407 135C407.26 142.906 412.428 142 419 142L419 138C421.529 139.778 423.874 141.305 427 141.786C449.942 145.318 450.657 103.932 428 106.113C424.566 106.443 421.89 108.286 419 110L419 93L408 93z"/>
<path style="fill:#a7a2a4; stroke:none;" d="M419 93L421 110L419 93M70 94L71 95L70 94M85 94L86 95L85 94M164 94L164 95L172 95L164 94z"/>
<path style="fill:#d33536; stroke:none;" d="M24 95L24 198L70 198C66.5021 188.982 62.5282 179.514 67.0502 170C76.1575 150.839 99.8311 149.022 95 123C97.7981 126.405 99.8453 130.019 101.738 134C114.71 161.28 83.8145 175.498 77 199L128 198L128 95L98 95C94.5306 95 88.6303 93.8934 85.6489 96.0278C77.2373 102.05 81.2921 120.406 79.3194 129C75.4764 145.741 57.5993 156.303 42 160L42 159C64.0287 149.31 53.0713 132.002 55.5069 115C56.7861 106.071 62.9297 101.636 68 95L24 95z"/>
<path style="fill:#a7a2a4; stroke:none;" d="M68 95L69 96L68 95M161.667 95.3333L162.333 95.6667L161.667 95.3333z"/>
<path style="fill:#fdfcfc; stroke:none;" d="M153 127L153 142L160 142L160 137C165.064 140.045 169.815 143.027 176 142.292C186.126 141.088 193.476 130.515 187.91 121.015C182.112 111.118 170.927 117.014 164.337 110.486C158.24 104.447 170.304 100.815 174.91 103.317C180.025 106.095 181.754 108.926 188 109C188 102.113 189.647 95.2839 181 95L181 100C170.458 93.2814 144.726 95.4747 154.457 113.96C159.72 123.958 172.3 118.135 178.663 125.279C184.676 132.03 172.169 136.218 167.04 133.543C161.173 130.483 160.231 127.026 153 127z"/>
<path style="fill:#a7a2a4; stroke:none;" d="M173.667 95.3333L174.333 95.6667L173.667 95.3333M180 95L179 100L180 95M187 95L188 96L187 95M343 95L344 96L343 95z"/>
<path style="fill:#fdfcfc; stroke:none;" d="M343 96L343 102L347 102L347 135L343 135C343.331 145.094 359.669 145.094 360 135C355.018 132.253 356 127.092 356 122C371.31 122 372 128.159 372 142L385 141L385 135L381 135C380.877 129.03 380.786 122.037 375 119L375 117C382.743 113.13 382.598 101.908 374.906 97.6883C367.066 93.3874 351.357 93.53 343 96z"/>
<path style="fill:#a7a2a4; stroke:none;" d="M366 95L366 96L371 96L366 95M67 96L68 97L67 96M84 96L85 97L84 96M159 96L160 97L159 96M372.667 96.3333L373.333 96.6667L372.667 96.3333M158 97L159 98L158 97M177 97L178 98L177 97M343 97L343 101L344 101L343 97M375 97L376 98L375 97M83 98L84 99L83 98M178 98L179 99L178 98M376 98L377 99L376 98M63 99L64 100L63 99M62 100L63 101L62 100M378 100L379 101L378 100M61 101L62 102L61 101M82 101L83 102L82 101M154 101L155 102L154 101M379 101L380 102L379 101M60 102L61 103L60 102M165 102L166 103L165 102M174 102L175 103L174 102M343 102L343 103L347 103L343 102M356 115L367 115L367 114L357 114L357 103L366 103C355.989 98.8009 356 107.727 356 115M153 103L154 104L153 103z"/>
<path style="fill:#19131d; stroke:none;" d="M357 103L357 114C360.355 114 364.736 114.709 367.891 113.397C371.889 111.734 372.553 106.506 368.771 104.179C365.556 102.201 360.611 103 357 103z"/>
<path style="fill:#a7a2a4; stroke:none;" d="M368 103L369 104L368 103M380.333 103.667L380.667 104.333L380.333 103.667M81.3333 104.667L81.6667 105.333L81.3333 104.667M177 104L178 105L177 104M370 104L371 105L370 104M58 105L59 106L58 105M162 105L163 106L162 105M213 105L213 106L220 106L213 105M248 105L248 106L253 106L248 105M290 105L290 106L294 106L290 105M309 105L309 106L317 106L309 105M426 105L426 106L433 106L426 105M152 106L152 110L153 110L152 106M194 106L194 107L206 107L194 106M211 106L212 107L211 106z"/>
<path style="fill:#fdfcfc; stroke:none;" d="M206 110C204.987 105.274 197.995 107 194 107L194 113L198 113L198 146C194.313 147.223 194.12 149.308 194 153L209 153L209 146L206 146L205 138C208.251 139.774 211.203 141.709 215 141.941C241.559 143.566 232.271 91.5318 206 110z"/>
<path style="fill:#a7a2a4; stroke:none;" d="M221.667 106.333L222.333 106.667L221.667 106.333M244.667 106.333L245.333 106.667L244.667 106.333z"/>
<path style="fill:#fdfcfc; stroke:none;" d="M237 117L245 117C248.453 110.154 255.833 111.527 257 119C250.785 119.786 241.878 120.036 237.514 125.225C232.462 131.23 236.98 140.02 244.001 141.605C249.244 142.788 253.527 140.34 258 138L257 141L264 142C264 133.829 267.017 118.037 262.258 111.105C255.341 101.03 238.993 106.003 237 117z"/>
<path style="fill:#a7a2a4; stroke:none;" d="M256 106L257 107L256 106M270 113L271 113L271 107L282 107L282 112L283 112L283 106C276.263 106 270.272 104.704 270 113M287 106L288 107L287 106z"/>
<path style="fill:#fdfcfc; stroke:none;" d="M283 112L282 112L282 107L271 107L271 113L274 113L274 135L271 135L271 142C278.153 142 286.696 144.253 287 135L282 135C282 125.385 281.273 111.939 295 114L295 106C289.397 106.051 285.825 106.852 283 112z"/>
<path style="fill:#a7a2a4; stroke:none;" d="M295 106L295 114L296 114L295 106M306.667 106.333L307.333 106.667L306.667 106.333z"/>
<path style="fill:#fdfcfc; stroke:none;" d="M329 130L321 130C314.785 137.604 305.769 135.203 305 125L330 125C329.512 118.873 328.208 112.677 322.907 108.854C310.933 100.219 296.079 110.43 296.079 124C296.079 143.028 325.352 150.129 329 130z"/>
<path style="fill:#a7a2a4; stroke:none;" d="M318.667 106.333L319.333 106.667L318.667 106.333M371 106L372 107L371 106M388 106L388 107L400 107L388 106M424 106L425 107L424 106M434.667 106.333L435.333 106.667L434.667 106.333M179 107L180 108L179 107M209 107L210 108L209 107M223 107L224 108L223 107M242 107L243 108L242 107M258 107L259 108L258 107M321 107L322 108L321 107z"/>
<path style="fill:#fdfcfc; stroke:none;" d="M388 107L388 113L392 113L392 135L388 135L388 142L403 142L403 135L400 135L400 107L388 107z"/>
<path style="fill:#a7a2a4; stroke:none;" d="M422 107L423 108L422 107M436 107L437 108L436 107M180 108L181 109L180 108M260 108L261 109L260 108M303 108L304 109L303 108M322 108L323 109L322 108M421 108L422 109L421 108M438 108L439 109L438 108M80 109L80 112L81 112L80 109M162 109L163 110L162 109M206 109L207 110L206 109M261 109L262 110L261 109M439 109L440 110L439 109M56 110L57 111L56 110M163 110L164 111L163 110M262 110L263 111L262 110M371 110L372 111L371 110M440 110L441 111L440 110M164 111L165 112L164 111M238 111L239 112L238 111M380.333 111.667L380.667 112.333L380.333 111.667M153 112L154 113L153 112M167 112L167 113L172 113L167 112M213 112L213 113L216 113L213 112M228 112L229 113L228 112M247.667 112.333L248.333 112.667L247.667 112.333M253.667 112.333L254.333 112.667L253.667 112.333M263 112L264 113L263 112M299 112L300 113L299 112M312 112L312 113L315 113L312 112M326 112L327 113L326 112M370 112L371 113L370 112M426 112L426 113L430 113L426 112M176.667 113.333L177.333 113.667L176.667 113.333M197 113L197 146L198 146L197 113M210 113L207 117L210 113z"/>
<path style="fill:#19131d; stroke:none;" d="M211.055 114.029C201.704 119.015 206.685 140.198 217.891 133.971C226.093 129.414 222.13 108.123 211.055 114.029z"/>
<path style="fill:#a7a2a4; stroke:none;" d="M237 113L238 114L237 113M246 113L247 114L246 113M290 113L290 114L294 114L290 113M298 113L299 114L298 113M309 113L310 114L309 113z"/>
<path style="fill:#19131d; stroke:none;" d="M306 120L320 120C318.187 111.123 307.829 111.155 306 120z"/>
<path style="fill:#a7a2a4; stroke:none;" d="M327 113L328 114L327 113M391 113L391 135L392 135L391 113M423 113L421 116L423 113z"/>
<path style="fill:#19131d; stroke:none;" d="M424.109 114.029C415.216 118.957 419.943 140.049 430.891 133.971C439.087 129.421 435.022 107.981 424.109 114.029z"/>
<path style="fill:#a7a2a4; stroke:none;" d="M431 113L432 114L431 113M442 113L443 114L442 113M55 114L55 120L56 120L55 114M154 114L155 115L154 114M180 114L181 115L180 114M219 114L220 115L219 114M229 114L230 115L229 114M245 114L246 115L245 114M256.333 114.667L256.667 115.333L256.333 114.667M287 114L288 115L287 114M318 114L319 115L318 114M432 114L433 115L432 114M182 115L183 116L182 115M236.333 115.667L236.667 116.333L236.333 115.667M264 115L264 142L265 142L264 115M285 115L286 116L285 115M297 115L298 116L297 115M328 115L329 116L328 115M378 115L379 116L378 115M433 115L434 116L433 115M443 115L444 116L443 115M184 116L185 117L184 116M230.333 116.667L230.667 117.333L230.333 116.667M284 116L285 117L284 116M306 116L307 117L306 116M319 116L320 117L319 116M377 116L378 117L377 116M434.333 116.667L434.667 117.333L434.333 116.667M185 117L186 118L185 117M221 117L222 118L221 117M241 117L241 118L244 118L241 117M283 117L284 118L283 117M375.333 117.667L375.667 118.333L375.333 117.667M420 117L421 118L420 117M158 118L159 119L158 118M186 118L187 119L186 118M206.333 118.667L206.667 119.333L206.333 118.667M296.333 118.667L296.667 119.333L296.333 118.667M305.333 118.667L305.667 119.333L305.333 118.667M320.333 118.667L320.667 119.333L320.333 118.667M329 118L329 121L330 121L329 118M444 118L444 121L445 121L444 118M159 119L160 120L159 119M187 119L188 120L187 119M250 119L250 120L254 120L250 119M282 119L282 135L283 135L282 119M419 119L419 122L420 122L419 119M161.667 120.333L162.333 120.667L161.667 120.333M222 120L222 128L223 128L222 120M231 120L231 128L232 128L231 120M245.667 120.333L246.333 120.667L245.667 120.333M435 120L435 128L436 128L435 120M165 121L165 122L168 122L165 121M188 121L189 122L188 121M242.667 121.333L243.333 121.667L242.667 121.333z"/>
<path style="fill:#facc1d; stroke:none;" d="M94 122L95 123L94 122z"/>
<path style="fill:#a7a2a4; stroke:none;" d="M172 122L172 123L175 123L172 122M240 122L241 123L240 122M356 122L356 134L357 134L356 122M367 122L368 123L367 122M379 122L380 123L379 122M56.3333 123.667L56.6667 124.333L56.3333 123.667z"/>
<path style="fill:#facc1d; stroke:none;" d="M95 123C99.5436 147.474 77.5639 150.483 67.9051 168C60.5212 181.391 68.4183 195.752 76 207L77 207C77.0195 177.495 115.981 164.705 101.687 133C99.9797 129.214 98.0476 125.816 95 123z"/>
<path style="fill:#a7a2a4; stroke:none;" d="M176.667 123.333L177.333 123.667L176.667 123.333M189.333 123.667L189.667 124.333L189.333 123.667M237 124L238 125L237 124M370 124L371 125L370 124M95 125L96 126L95 125M97 125L98 126L97 125M250 125L250 126L254 126L250 125z"/>
<path style="fill:#19131d; stroke:none;" d="M257 125C254.676 125.295 252.278 125.554 250.003 126.139C237.293 129.408 251.384 142.315 256.106 130.961C256.897 129.06 256.906 127.014 257 125z"/>
<path style="fill:#a7a2a4; stroke:none;" d="M305 125L305 126L330 126L305 125M380 125L380 129L381 129L380 125M153 126L153 127L161 127L153 126M180 126L181 127L180 126M247 126L248 127L247 126M371 126L371 129L372 129L371 126M419 126L419 129L420 129L419 126M444 126L444 130L445 130L444 126M57 127L57 130L58 130L57 127M79.3333 127.667L79.6667 128.333L79.3333 127.667M152 127L152 141L153 141L152 127M245 127L246 128L245 127M161 128L162 129L161 128M206.333 128.667L206.667 129.333L206.333 128.667M235 128L236 129L235 128M244 128L245 129L244 128M296.333 128.667L296.667 129.333L296.333 128.667M180.333 129.667L180.667 130.333L180.333 129.667M305.333 129.667L305.667 130.333L305.333 129.667M221 130L222 131L221 130M256.333 130.667L256.667 131.333L256.333 130.667M320 130L321 131L320 130M322 130L322 131L328 131L322 130M329.333 130.667L329.667 131.333L329.333 130.667M434.333 130.667L434.667 131.333L434.333 130.667M163 131L164 132L163 131M189.333 131.667L189.667 132.333L189.333 131.667M207 131L208 132L207 131M230 131L231 132L230 131M243 131L244 132L243 131M78 132L79 133L78 132M164 132L165 133L164 132M220 132L221 133L220 132M297 132L298 133L297 132M319 132L320 133L319 132M421 132L422 133L421 132M433 132L434 133L433 132M443 132L444 133L443 132M166 133L167 134L166 133M177 133L178 134L177 133M209 133L210 134L209 133M219 133L220 134L219 133M229 133L230 134L229 133M235.333 133.667L235.667 134.333L235.333 133.667M318 133L319 134L318 133M328 133L329 134L328 133M422 133L423 134L422 133M432 133L433 134L432 133M77 134L78 135L77 134M168.667 134.333L169.333 134.667L168.667 134.333M174.667 134.333L175.333 134.667L174.667 134.333M188 134L189 135L188 134M210 134L211 135L210 134M254 134L255 135L254 134M298 134L299 135L298 134M317 134L318 135L317 134M343 134L343 135L347 135L343 134M357 134L357 135L360 135L357 134M381 134L381 135L385 135L381 134M423 134L424 135L423 134M431 134L432 135L431 134M442 134L443 135L442 134M213.667 135.333L214.333 135.667L213.667 135.333M228 135L229 136L228 135M246 135L247 136L246 135M252 135L253 136L252 135M270 135L270 142L271 142L270 135M299 135L300 136L299 135M312 135L312 136L315 136L312 135M327 135L328 136L327 135M427 135L428 136L427 135M76 136L77 137L76 136M187 136L188 137L187 136M236 136L237 137L236 136M248.667 136.333L249.333 136.667L248.667 136.333M384 136L384 139L385 139L384 136M441 136L442 137L441 136M103 137L104 138L103 137M186 137L187 138L186 137M440 137L441 138L440 137M57.3333 138.667L57.6667 139.333L57.3333 138.667M75 138L76 139L75 138M160 138L160 142L161 142L160 138M162 138L163 139L162 138M185 138L186 139L185 138M205 138L206 139L205 138M257 138L258 139L257 138M419 138L420 139L419 138M439 138L440 139L439 138M184 139L185 140L184 139M238 139L239 140L238 139M303 139L304 140L303 139M323 139L324 140L323 139M438 139L439 140L438 139M165 140L166 141L165 140M182 140L183 141L182 140M209 140L210 141L209 140M223 140L224 141L223 140M240 140L241 141L240 140M253 140L254 141L253 140M321 140L322 141L321 140M371 140L372 141L371 140M422 140L423 141L422 140M437 140L438 141L437 140M73 141L74 142L73 141M104 141L105 142L104 141M167 141L168 142L167 141M180 141L181 142L180 141M221 141L222 142L221 141M241.667 141.333L242.333 141.667L241.667 141.333M251.667 141.333L252.333 141.667L251.667 141.333M257 141L258 142L257 141M286 141L287 142L286 141M306.667 141.333L307.333 141.667L306.667 141.333M319 141L320 142L319 141M343 141L344 142L343 141M359 141L360 142L359 141M384 141L385 142L384 141M407 141L408 142L407 141M424 141L425 142L424 141M435 141L436 142L435 141M72 142L73 143L72 142M170 142L170 143L173 143L170 142M175 142L175 143L178 143L175 142M213 142L213 143L220 143L213 142M244 142L244 143L250 143L244 142M310 142L310 143L317 143L310 142M426 142L426 143L433 143L426 142M56 143L57 144L56 143M55 145L56 146L55 145M90 146L91 147L90 146M194 146L195 147L194 146M209 146L209 153L210 153L209 146M54 147L55 148L54 147M67 147L68 148L67 147M66 148L67 149L66 148M53 149L54 150L53 149M52 150L53 151L52 150M63 150L64 151L63 150M153 151L153 152L188 152L188 166C196.892 144.81 165.116 151 153 151M60 152L61 153L60 152z"/>
<path style="fill:#d33536; stroke:none;" d="M152 152L153 153L152 152z"/>
<path style="fill:#facc1d; stroke:none;" d="M153 152L153 159L157 159C157 166.859 160.622 186.797 153 191L153 198L189 198L189 183L181 183C183.04 192.887 172.888 191 166 191L166 178L180 178L180 170L166 170L166 159L181 159L181 166L188 166L188 152L153 152z"/>
<path style="fill:#a7a2a4; stroke:none;" d="M57 154L58 155L57 154M82 154L83 155L82 154M55 155L56 156L55 155M52 156L53 157L52 156M45 157L46 158L45 157M49 157L50 158L49 157z"/>
<path style="fill:#d33536; stroke:none;" d="M152 157L153 158L152 157z"/>
<path style="fill:#a7a2a4; stroke:none;" d="M43 158L44 159L43 158M47 158L48 159L47 158M76 158L77 159L76 158M42 159L43 160L42 159M44 159L45 160L44 159M156 159L156 190L157 190L156 159z"/>
<path style="fill:#d33536; stroke:none;" d="M180 159L181 160L180 159z"/>
<path style="fill:#a7a2a4; stroke:none;" d="M41 160L42 161L41 160z"/>
<path style="fill:#d33536; stroke:none;" d="M250 161L250 162L254 162L250 161M312 161L312 162L315 162L312 161M195 162L195 163L203 163L195 162M216 162L216 163L223 163L216 162M224 162L225 163L224 162M230 162L229 169L230 169L230 162M232 162L232 163L239 163L232 162M240 162L241 163L240 162z"/>
<path style="fill:#a7a2a4; stroke:none;" d="M247 162L248 163L247 162z"/>
<path style="fill:#facc1d; stroke:none;" d="M241 166C240.018 161.419 233.884 163 230 163L230 169L233 169L233 203L230 203L230 209L245 209L245 203C241.17 200.888 241.049 198.16 241 194C243.82 195.899 246.528 198.108 250.001 198.62C271.751 201.832 272.877 160.597 251 162.12C247.302 162.378 244.204 164.323 241 166z"/>
<path style="fill:#a7a2a4; stroke:none;" d="M256 162L257 163L256 162z"/>
<path style="fill:#d33536; stroke:none;" d="M257 162L258 163L257 162M271 162L270 168L271 168L271 162M274 162L274 163L282 163L274 162z"/>
<path style="fill:#a7a2a4; stroke:none;" d="M288 162L289 163L288 162z"/>
<path style="fill:#facc1d; stroke:none;" d="M282 168L282 163L271 163L271 169L274 169L274 191L271 191L271 198L287 198L287 191L282 191C282 180.537 281.812 170.319 295 170L295 162C289.261 162.139 286.134 164.093 282 168z"/>
<path style="fill:#a7a2a4; stroke:none;" d="M295 162L295 170L296 170L295 162M307.667 162.333L308.333 162.667L307.667 162.333z"/>
<path style="fill:#facc1d; stroke:none;" d="M329 187C319.778 187.007 307.063 197.393 305 182L330 182C329.52 158.848 298.229 154.658 296.188 179C294.556 198.474 324.871 207.452 329 187z"/>
<path style="fill:#a7a2a4; stroke:none;" d="M318 162L319 163L318 162z"/>
<path style="fill:#d33536; stroke:none;" d="M342 162L343 163L342 162z"/>
<path style="fill:#a7a2a4; stroke:none;" d="M343 162L344 163L343 162z"/>
<path style="fill:#facc1d; stroke:none;" d="M335 186L335 198L341 198L341 194C350.462 199.611 373.672 196.911 363.142 181.108C358.746 174.511 350.666 178.122 345.377 173.988C342.145 171.461 346.235 168.302 349.005 168.296C354.213 168.286 358.252 172.932 364 173L364 163C360.637 163 357.796 162.284 357 166C348.594 161.202 327.492 163.97 337.009 177.811C341.397 184.192 349.382 180.875 354.663 185.089C358.209 187.918 354.273 191.427 350.995 191.663C345.215 192.078 341.28 186.075 335 186z"/>
<path style="fill:#a7a2a4; stroke:none;" d="M350.667 162.333L351.333 162.667L350.667 162.333z"/>
<path style="fill:#d33536; stroke:none;" d="M357 162L357 163L360 163L357 162M362 162L363 163L362 162z"/>
<path style="fill:#a7a2a4; stroke:none;" d="M377.667 162.333L378.333 162.667L377.667 162.333z"/>
<path style="fill:#facc1d; stroke:none;" d="M370 186L370 198L376 198L376 194C385.458 199.609 407.916 196.864 397.86 181.214C393.577 174.548 384.138 178.428 379.466 173.416C376.971 170.739 380.406 168.375 383.005 168.257C388.327 168.015 392.253 172.932 398 173L398 163C394.806 163.013 392.729 162.597 392 166C383.59 161.2 362.046 163.92 371.742 177.891C376.005 184.033 383.678 180.85 388.793 184.858C392.56 187.81 388.598 191.629 385 191.718C379.475 191.856 375.942 186.193 370 186z"/>
<path style="fill:#a7a2a4; stroke:none;" d="M385 162L386 163L385 162z"/>
<path style="fill:#d33536; stroke:none;" d="M392 162L392 163L395 163L392 162M397 162L398 163L397 162z"/>
<path style="fill:#facc1d; stroke:none;" d="M194 163L194 169C213.767 174.669 194.322 188.196 194 198C203.225 197.993 205.075 194.307 210 187C213.643 194.793 216.292 197.993 225 198L225 191L214 180L214 179L225 169L225 163C217.213 163.001 213.525 164.029 211 172L209 172C205.396 164.297 202.205 163.001 194 163z"/>
<path style="fill:#a7a2a4; stroke:none;" d="M241 163L241 166L242 166L241 163M245 163L246 164L245 163M258 163L259 164L258 163M282 163L282 166L283 166L282 163M286 163L287 164L286 163M305 163L306 164L305 163M320 163L321 164L320 163z"/>
<path style="fill:#d33536; stroke:none;" d="M340 163L341 164L340 163M353 163L354 164L353 163z"/>
<path style="fill:#a7a2a4; stroke:none;" d="M375 163L376 164L375 163M391 163L391 166L392 166L391 163M398 163L398 173L399 173L398 163M100 164L101 165L100 164z"/>
<path style="fill:#d33536; stroke:none;" d="M214 164L215 165L214 164M243 164L244 165L243 164M260 164L261 165L260 164z"/>
<path style="fill:#a7a2a4; stroke:none;" d="M285 164L286 165L285 164M322 164L323 165L322 164M339 164L340 165L339 164M354 164L355 165L354 164z"/>
<path style="fill:#d33536; stroke:none;" d="M389 164L390 165L389 164z"/>
<path style="fill:#a7a2a4; stroke:none;" d="M69 165L70 166L69 165M205 165L206 166L205 165z"/>
<path style="fill:#d33536; stroke:none;" d="M242 165L243 166L242 165z"/>
<path style="fill:#a7a2a4; stroke:none;" d="M261 165L262 166L261 165M284 165L285 166L284 165M302 165L303 166L302 165M355 165L356 166L355 165z"/>
<path style="fill:#d33536; stroke:none;" d="M372 165L373 166L372 165M390 165L391 166L390 165z"/>
<path style="fill:#a7a2a4; stroke:none;" d="M213 166L214 167L213 166M262 166L263 167L262 166z"/>
<path style="fill:#d33536; stroke:none;" d="M282 166L283 167L282 166z"/>
<path style="fill:#a7a2a4; stroke:none;" d="M301 166L302 167L301 166M206 167L207 168L206 167z"/>
<path style="fill:#d33536; stroke:none;" d="M263 167L264 168L263 167z"/>
<path style="fill:#a7a2a4; stroke:none;" d="M282 167L283 168L282 167M300 167L301 168L300 167M336 167L337 168L336 167M67 168L68 169L67 168z"/>
<path style="fill:#d33536; stroke:none;" d="M207 168L208 169L207 168z"/>
<path style="fill:#a7a2a4; stroke:none;" d="M270 168L271 169L270 168M299 168L300 169L299 168M345 168L346 169L345 168M352 168L353 169L352 168M370 168L371 169L370 168M379 168L380 169L379 168z"/>
<path style="fill:#d33536; stroke:none;" d="M386 168L387 169L386 168z"/>
<path style="fill:#a7a2a4; stroke:none;" d="M96 169L97 170L96 169M194 169L194 170L197 170L194 169z"/>
<path style="fill:#d33536; stroke:none;" d="M197 169L198 170L197 169z"/>
<path style="fill:#a7a2a4; stroke:none;" d="M211 169L212 170L211 169M221 169L222 170L221 169z"/>
<path style="fill:#d33536; stroke:none;" d="M222 169L223 170L222 169z"/>
<path style="fill:#a7a2a4; stroke:none;" d="M223.667 169.333L224.333 169.667L223.667 169.333M230 169L230 170L233 170L230 169M246 169L247 170L246 169z"/>
<path style="fill:#19131d; stroke:none;" d="M247.094 169.873C237.736 173.703 241.2 195.131 252.895 190.257C262.222 186.37 258.037 165.396 247.094 169.873z"/>
<path style="fill:#d33536; stroke:none;" d="M252 169L253 170L252 169z"/>
<path style="fill:#a7a2a4; stroke:none;" d="M264 169L265 170L264 169M271 169L271 170L274 170L271 169z"/>
<path style="fill:#d33536; stroke:none;" d="M310 169L311 170L310 169z"/>
<path style="fill:#19131d; stroke:none;" d="M306 176L320 176C318.173 167.166 308.376 167.74 306 176z"/>
<path style="fill:#a7a2a4; stroke:none;" d="M316 169L317 170L316 169M327 169L328 170L327 169M335 169L336 170L335 169M378 169L379 170L378 169M388 169L389 170L388 169M66 170L67 171L66 170M95 170L96 171L95 170M180 170L180 178L181 178L180 170M208 170L209 171L208 170M220 170L221 171L220 170z"/>
<path style="fill:#d33536; stroke:none;" d="M245 170L246 171L245 170z"/>
<path style="fill:#a7a2a4; stroke:none;" d="M254 170L255 171L254 170M288 170L289 171L288 170z"/>
<path style="fill:#d33536; stroke:none;" d="M294.667 170.333L295.333 170.667L294.667 170.333z"/>
<path style="fill:#a7a2a4; stroke:none;" d="M298 170L299 171L298 170M308 170L309 171L308 170M377 170L378 171L377 170M389 170L390 171L389 170M94 171L95 172L94 171M199 171L200 172L199 171M210 171L211 172L210 171M255 171L256 172L255 171M265 171L266 172L265 171z"/>
<path style="fill:#d33536; stroke:none;" d="M286 171L287 172L286 171z"/>
<path style="fill:#a7a2a4; stroke:none;" d="M307 171L308 172L307 171M328 171L329 172L328 171z"/>
<path style="fill:#d33536; stroke:none;" d="M369 171L369 174L370 174L369 171M377.333 171.667L377.667 172.333L377.333 171.667z"/>
<path style="fill:#a7a2a4; stroke:none;" d="M390 171L391 172L390 171z"/>
<path style="fill:#d33536; stroke:none;" d="M243 172L244 173L243 172z"/>
<path style="fill:#a7a2a4; stroke:none;" d="M297 172L298 173L297 172z"/>
<path style="fill:#d33536; stroke:none;" d="M319 172L320 173L319 172z"/>
<path style="fill:#a7a2a4; stroke:none;" d="M356 172L357 173L356 172M218 173L219 174L218 173M242 173L243 174L242 173z"/>
<path style="fill:#d33536; stroke:none;" d="M343 173L344 174L343 173z"/>
<path style="fill:#a7a2a4; stroke:none;" d="M357 173L357 174L364 174L357 173z"/>
<path style="fill:#d33536; stroke:none;" d="M391 173L392 174L391 173z"/>
<path style="fill:#a7a2a4; stroke:none;" d="M392 173L392 174L398 174L392 173M201 174L202 175L201 174M266.333 174.667L266.667 175.333L266.333 174.667M283 174L284 175L283 174z"/>
<path style="fill:#d33536; stroke:none;" d="M296 174L297 175L296 174z"/>
<path style="fill:#a7a2a4; stroke:none;" d="M305 174L306 175L305 174M320 174L321 175L320 174z"/>
<path style="fill:#d33536; stroke:none;" d="M329 174L330 175L329 174z"/>
<path style="fill:#a7a2a4; stroke:none;" d="M344 174L345 175L344 174z"/>
<path style="fill:#d33536; stroke:none;" d="M345 174L346 175L345 174z"/>
<path style="fill:#a7a2a4; stroke:none;" d="M379 174L380 175L379 174M257 175L258 176L257 175M296.333 175.667L296.667 176.333L296.333 175.667z"/>
<path style="fill:#d33536; stroke:none;" d="M305 175L306 176L305 175M320 175L321 176L320 175z"/>
<path style="fill:#a7a2a4; stroke:none;" d="M329 175L330 176L329 175M335 175L336 176L335 175M350 175L350 176L353 176L350 175M384 175L384 176L387 176L384 175z"/>
<path style="fill:#d33536; stroke:none;" d="M387 175L388 176L387 175z"/>
<path style="fill:#a7a2a4; stroke:none;" d="M216 176L217 177L216 176M282 176L282 191L283 191L282 176M356 176L357 177L356 176M370 176L371 177L370 176M390 176L391 177L390 176z"/>
<path style="fill:#d33536; stroke:none;" d="M391 176L392 177L391 176z"/>
<path style="fill:#a7a2a4; stroke:none;" d="M203 177L204 178L203 177M241 177L241 184L242 184L241 177M336 177L337 178L336 177z"/>
<path style="fill:#d33536; stroke:none;" d="M359 177L360 178L359 177z"/>
<path style="fill:#a7a2a4; stroke:none;" d="M393 177L394 178L393 177z"/>
<path style="fill:#d33536; stroke:none;" d="M371 178L372 179L371 178z"/>
<path style="fill:#a7a2a4; stroke:none;" d="M395 178L396 179L395 178M214 179L215 180L214 179M362 179L363 180L362 179z"/>
<path style="fill:#d33536; stroke:none;" d="M372 179L373 180L372 179z"/>
<path style="fill:#a7a2a4; stroke:none;" d="M339 180L340 181L339 180z"/>
<path style="fill:#d33536; stroke:none;" d="M363 180L364 181L363 180z"/>
<path style="fill:#a7a2a4; stroke:none;" d="M203 181L204 182L203 181M375 181L376 182L375 181M398 181L399 182L398 181z"/>
<path style="fill:#d33536; stroke:none;" d="M182 182L182 183L189 183L182 182z"/>
<path style="fill:#a7a2a4; stroke:none;" d="M216 182L217 183L216 182M343.667 182.333L344.333 182.667L343.667 182.333z"/>
<path style="fill:#d33536; stroke:none;" d="M364 182L365 183L364 182M377 182L378 183L377 182z"/>
<path style="fill:#a7a2a4; stroke:none;" d="M378.667 182.333L379.333 182.667L378.667 182.333M189 183L189 198L190 198L189 183z"/>
<path style="fill:#d33536; stroke:none;" d="M349 183L350 184L349 183z"/>
<path style="fill:#a7a2a4; stroke:none;" d="M350.667 183.333L351.333 183.667L350.667 183.333M364 183L365 184L364 183z"/>
<path style="fill:#d33536; stroke:none;" d="M383 183L384 184L383 183z"/>
<path style="fill:#a7a2a4; stroke:none;" d="M384 183L384 184L387 184L384 183z"/>
<path style="fill:#d33536; stroke:none;" d="M399 183L400 184L399 183z"/>
<path style="fill:#a7a2a4; stroke:none;" d="M181 184L181 190L182 190L181 184M201 184L202 185L201 184M296.333 184.667L296.667 185.333L296.333 184.667z"/>
<path style="fill:#d33536; stroke:none;" d="M354 184L355 185L354 184z"/>
<path style="fill:#a7a2a4; stroke:none;" d="M389 184L390 185L389 184M399.333 184.667L399.667 185.333L399.333 184.667M65 185L66 186L65 185M82 185L83 186L82 185M218 185L219 186L218 185M257 185L258 186L257 185M266.333 185.667L266.667 186.333L266.333 185.667z"/>
<path style="fill:#d33536; stroke:none;" d="M305 185L306 186L305 185M335 185L336 186L335 185z"/>
<path style="fill:#a7a2a4; stroke:none;" d="M336 185L337 186L336 185z"/>
<path style="fill:#d33536; stroke:none;" d="M337 185L337 186L340 186L337 185z"/>
<path style="fill:#a7a2a4; stroke:none;" d="M340 185L341 186L340 185M356 185L357 186L356 185M370 185L370 186L373 186L370 185z"/>
<path style="fill:#d33536; stroke:none;" d="M373 185L374 186L373 185z"/>
<path style="fill:#a7a2a4; stroke:none;" d="M374.667 185.333L375.333 185.667L374.667 185.333M242 186L243 187L242 186M305 186L306 187L305 186M321 186L321 187L330 188L321 186z"/>
<path style="fill:#d33536; stroke:none;" d="M329 186L330 187L329 186z"/>
<path style="fill:#a7a2a4; stroke:none;" d="M369 186L370 187L369 186M376 186L377 187L376 186M391 186L392 187L391 186z"/>
<path style="fill:#d33536; stroke:none;" d="M199 187L200 188L199 187z"/>
<path style="fill:#a7a2a4; stroke:none;" d="M209 187L210 188L209 187z"/>
<path style="fill:#d33536; stroke:none;" d="M256 187L257 188L256 187z"/>
<path style="fill:#a7a2a4; stroke:none;" d="M342 187L343 188L342 187z"/>
<path style="fill:#d33536; stroke:none;" d="M369 187L369 198L370 198L369 187M391 187L392 188L391 187z"/>
<path style="fill:#a7a2a4; stroke:none;" d="M220 188L221 189L220 188M243 188L244 189L243 188M297 188L298 189L297 188z"/>
<path style="fill:#d33536; stroke:none;" d="M319 188L320 189L319 188M343 188L344 189L343 188z"/>
<path style="fill:#a7a2a4; stroke:none;" d="M391 188L392 189L391 188z"/>
<path style="fill:#d33536; stroke:none;" d="M406 188L407 189L406 188M412 188L413 189L412 188z"/>
<path style="fill:#a7a2a4; stroke:none;" d="M66 189L67 190L66 189M80 189L81 190L80 189M198 189L199 190L198 189z"/>
<path style="fill:#d33536; stroke:none;" d="M221 189L222 190L221 189z"/>
<path style="fill:#a7a2a4; stroke:none;" d="M244 189L245 190L244 189M265 189L266 190L265 189M307 189L308 190L307 189z"/>
<path style="fill:#d33536; stroke:none;" d="M344 189L345 190L344 189z"/>
<path style="fill:#a7a2a4; stroke:none;" d="M356 189L357 190L356 189M378 189L379 190L378 189M399 189L400 190L399 189M405 189L405 198L406 198L405 189z"/>
<path style="fill:#facc1d; stroke:none;" d="M406 189L406 198L415 198L415 189L406 189z"/>
<path style="fill:#a7a2a4; stroke:none;" d="M153 190L153 191L156 191L153 190M166 190L166 191L181 191L166 190M197 190L198 191L197 190M207 190L208 191L207 190z"/>
<path style="fill:#d33536; stroke:none;" d="M253 190L254 191L253 190z"/>
<path style="fill:#a7a2a4; stroke:none;" d="M298 190L299 191L298 190M317 190L318 191L317 190M328 190L329 191L328 190M345 190L346 191L345 190M355 190L356 191L355 190z"/>
<path style="fill:#d33536; stroke:none;" d="M399 190L400 191L399 190z"/>
<path style="fill:#a7a2a4; stroke:none;" d="M79 191L80 192L79 191z"/>
<path style="fill:#d33536; stroke:none;" d="M152 191L152 198L153 198L152 191z"/>
<path style="fill:#a7a2a4; stroke:none;" d="M194 191L195 192L194 191M212 191L213 192L212 191M247.667 191.333L248.333 191.667L247.667 191.333z"/>
<path style="fill:#d33536; stroke:none;" d="M249.667 191.333L250.333 191.667L249.667 191.333z"/>
<path style="fill:#a7a2a4; stroke:none;" d="M251 191L252 192L251 191z"/>
<path style="fill:#d33536; stroke:none;" d="M264 191L265 192L264 191M270 191L271 192L270 191z"/>
<path style="fill:#a7a2a4; stroke:none;" d="M311 191L312 192L311 191z"/>
<path style="fill:#d33536; stroke:none;" d="M312 191L312 192L315 192L312 191z"/>
<path style="fill:#a7a2a4; stroke:none;" d="M315 191L316 192L315 191M347 191L348 192L347 191M353 191L354 192L353 191M364 191L365 192L364 191M381 191L382 192L381 191z"/>
<path style="fill:#d33536; stroke:none;" d="M382 191L383 192L382 191z"/>
<path style="fill:#a7a2a4; stroke:none;" d="M388 191L389 192L388 191M263 192L264 193L263 192M270 192L271 193L270 192M205 193L206 194L205 193z"/>
<path style="fill:#d33536; stroke:none;" d="M213 193L214 194L213 193M270 193L271 194L270 193M326 193L327 194L326 193z"/>
<path style="fill:#a7a2a4; stroke:none;" d="M363 193L364 194L363 193M68 194L69 195L68 194M241.667 194.333L242.333 194.667L241.667 194.333M270 194L270 198L271 198L270 194z"/>
<path style="fill:#d33536; stroke:none;" d="M325 194L326 195L325 194z"/>
<path style="fill:#a7a2a4; stroke:none;" d="M341 194L341 198L342 198L341 194M377 194L378 195L377 194z"/>
<path style="fill:#d33536; stroke:none;" d="M397 194L398 195L397 194z"/>
<path style="fill:#a7a2a4; stroke:none;" d="M204 195L205 196L204 195z"/>
<path style="fill:#d33536; stroke:none;" d="M241 195L242 196L241 195M343 195L344 196L343 195z"/>
<path style="fill:#a7a2a4; stroke:none;" d="M378 195L379 196L378 195z"/>
<path style="fill:#d33536; stroke:none;" d="M396 195L397 196L396 195z"/>
<path style="fill:#a7a2a4; stroke:none;" d="M69 196L70 197L69 196M215 196L216 197L215 196M241 196L241 202L242 202L241 196M244 196L245 197L244 196M259 196L260 197L259 196M304 196L305 197L304 196M322 196L323 197L322 196M360 196L361 197L360 196z"/>
<path style="fill:#d33536; stroke:none;" d="M376.333 196.667L376.667 197.333L376.333 196.667z"/>
<path style="fill:#a7a2a4; stroke:none;" d="M379 196L380 197L379 196M77 197L78 198L77 197z"/>
<path style="fill:#d33536; stroke:none;" d="M203 197L204 198L203 197M245 197L246 198L245 197z"/>
<path style="fill:#a7a2a4; stroke:none;" d="M306 197L307 198L306 197M320 197L321 198L320 197z"/>
<path style="fill:#d33536; stroke:none;" d="M346 197L347 198L346 197z"/>
<path style="fill:#a7a2a4; stroke:none;" d="M358 197L359 198L358 197M381 197L382 198L381 197M393 197L394 198L393 197M70 198L71 199L70 198z"/>
<path style="fill:#d33536; stroke:none;" d="M247 198L248 199L247 198z"/>
<path style="fill:#a7a2a4; stroke:none;" d="M248 198L249 199L248 198M254.667 198.333L255.333 198.667L254.667 198.333z"/>
<path style="fill:#d33536; stroke:none;" d="M308 198L309 199L308 198z"/>
<path style="fill:#a7a2a4; stroke:none;" d="M309.667 198.333L310.333 198.667L309.667 198.333M316.667 198.333L317.333 198.667L316.667 198.333z"/>
<path style="fill:#d33536; stroke:none;" d="M349 198L350 199L349 198z"/>
<path style="fill:#a7a2a4; stroke:none;" d="M350 198L350 199L356 199L350 198z"/>
<path style="fill:#d33536; stroke:none;" d="M356 198L357 199L356 198z"/>
<path style="fill:#a7a2a4; stroke:none;" d="M384 198L384 199L390 199L384 198z"/>
<path style="fill:#d33536; stroke:none;" d="M390 198L391 199L390 198M71 200L72 201L71 200z"/>
<path style="fill:#a7a2a4; stroke:none;" d="M72 201L73 202L72 201M230 202L230 203L233 203L230 202M242 202L242 203L245 203L242 202z"/>
<path style="fill:#d33536; stroke:none;" d="M73 203L74 204L73 203M229 203L229 209L230 209L229 203z"/>
<path style="fill:#a7a2a4; stroke:none;" d="M74 204L75 205L74 204z"/>
<path style="fill:#d33536; stroke:none;" d="M77 206L78 207L77 206z"/>
<path style="fill:#a7a2a4; stroke:none;" d="M76.6667 207.333L77.3333 207.667L76.6667 207.333z"/>
<path style="fill:#d33536; stroke:none;" d="M77 208L78 209L77 208z"/>
<path style="fill:#a7a2a4; stroke:none;" d="M230 209L230 210L245 210L230 209z"/>
</svg>
