<svg id="svg" version="1.1" xmlns="http://www.w3.org/2000/svg" xmlns:xlink="http://www.w3.org/1999/xlink" width="400" height="275.26881720430106" viewBox="0, 0, 400,275.26881720430106"><g id="svgg"><path id="path0" d="M338.610 1.789 C 338.610 2.066,338.334 2.202,337.775 2.202 C 337.287 2.202,336.875 2.374,336.782 2.615 C 336.695 2.842,336.451 3.028,336.240 3.028 C 336.029 3.028,335.857 3.214,335.857 3.441 C 335.857 3.668,335.640 3.854,335.374 3.854 C 334.799 3.854,333.379 5.285,333.379 5.865 C 333.379 6.089,333.193 6.344,332.966 6.431 C 332.739 6.518,332.553 6.766,332.553 6.982 C 332.553 7.198,332.368 7.445,332.140 7.532 C 331.868 7.637,331.727 8.068,331.727 8.801 C 331.727 9.555,331.607 9.911,331.352 9.911 C 331.114 9.911,330.912 10.378,330.801 11.188 C 330.416 14.001,330.725 17.619,331.352 17.619 C 331.613 17.619,331.727 17.995,331.727 18.858 C 331.727 19.775,331.835 20.096,332.140 20.096 C 332.416 20.096,332.553 20.372,332.553 20.922 C 332.553 21.473,332.691 21.748,332.966 21.748 C 333.196 21.748,333.379 21.993,333.379 22.299 C 333.379 22.605,333.563 22.849,333.792 22.849 C 334.019 22.849,334.205 23.035,334.205 23.262 C 334.205 23.489,334.391 23.675,334.618 23.675 C 334.845 23.675,335.031 23.861,335.031 24.088 C 335.031 24.315,335.204 24.501,335.414 24.501 C 335.625 24.501,335.869 24.687,335.956 24.914 C 336.049 25.155,336.462 25.327,336.949 25.327 C 337.508 25.327,337.784 25.464,337.784 25.740 C 337.784 26.012,338.056 26.153,338.580 26.153 C 339.034 26.153,339.445 26.330,339.535 26.566 C 339.772 27.182,347.970 27.182,347.970 26.566 C 347.970 26.267,348.277 26.153,349.080 26.153 C 349.812 26.153,350.243 26.012,350.348 25.740 C 350.435 25.513,350.679 25.327,350.890 25.327 C 351.101 25.327,351.273 25.141,351.273 24.914 C 351.273 24.685,351.518 24.501,351.824 24.501 C 352.130 24.501,352.374 24.318,352.374 24.088 C 352.374 23.861,352.560 23.675,352.787 23.675 C 353.014 23.675,353.200 23.544,353.200 23.384 C 353.200 23.224,353.553 22.760,353.985 22.352 C 354.416 21.944,354.849 21.386,354.946 21.111 C 355.044 20.837,355.248 20.689,355.401 20.783 C 355.564 20.884,355.678 20.601,355.678 20.093 C 355.678 19.619,355.864 19.045,356.091 18.818 C 356.424 18.485,356.504 17.535,356.504 13.874 C 356.504 10.100,356.435 9.316,356.091 9.184 C 355.855 9.094,355.678 8.683,355.678 8.229 C 355.678 7.705,355.537 7.433,355.265 7.433 C 355.038 7.433,354.852 7.194,354.852 6.902 C 354.852 6.610,354.635 6.154,354.370 5.889 C 354.105 5.624,353.889 5.334,353.889 5.244 C 353.889 4.953,352.802 3.948,352.288 3.762 C 352.014 3.664,351.866 3.458,351.960 3.305 C 352.061 3.142,351.785 3.028,351.289 3.028 C 350.724 3.028,350.447 2.892,350.447 2.615 C 350.447 2.340,350.172 2.202,349.621 2.202 C 349.071 2.202,348.796 2.065,348.796 1.789 C 348.796 1.437,348.046 1.376,343.703 1.376 C 339.359 1.376,338.610 1.437,338.610 1.789 " stroke="none" fill="#ec0c2c" fill-rule="evenodd"></path><path id="path1" d="M250.791 55.884 L 250.791 108.741 261.115 108.741 L 271.438 108.741 271.438 86.751 C 271.438 67.540,271.491 64.718,271.851 64.418 C 272.139 64.179,272.264 63.545,272.264 62.320 C 272.264 60.943,272.353 60.564,272.677 60.564 C 272.953 60.564,273.090 60.289,273.090 59.738 C 273.090 59.188,273.228 58.913,273.503 58.913 C 273.778 58.913,273.916 58.637,273.916 58.087 C 273.916 57.536,274.054 57.261,274.329 57.261 C 274.604 57.261,274.742 56.986,274.742 56.435 C 274.742 55.884,274.880 55.609,275.155 55.609 C 275.384 55.609,275.568 55.364,275.568 55.058 C 275.568 54.748,275.751 54.508,275.989 54.508 C 276.221 54.508,276.482 54.322,276.569 54.095 C 276.657 53.868,276.900 53.682,277.111 53.682 C 277.322 53.682,277.495 53.496,277.495 53.269 C 277.495 53.042,277.681 52.856,277.908 52.856 C 278.135 52.856,278.321 52.670,278.321 52.443 C 278.321 52.216,278.507 52.030,278.734 52.030 C 278.961 52.030,279.147 51.844,279.147 51.617 C 279.147 51.342,279.422 51.204,279.972 51.204 C 280.523 51.204,280.798 51.067,280.798 50.791 C 280.798 50.516,281.074 50.379,281.624 50.379 C 282.175 50.379,282.450 50.241,282.450 49.966 C 282.450 49.616,283.123 49.553,286.855 49.553 C 290.587 49.553,291.259 49.616,291.259 49.966 C 291.259 50.241,291.535 50.379,292.085 50.379 C 292.636 50.379,292.911 50.516,292.911 50.791 C 292.911 51.019,293.097 51.204,293.324 51.204 C 293.551 51.204,293.737 51.390,293.737 51.617 C 293.737 51.844,293.861 52.030,294.012 52.030 C 294.369 52.030,295.389 53.050,295.389 53.407 C 295.389 53.558,295.565 53.682,295.780 53.682 C 295.995 53.682,296.250 54.043,296.347 54.485 C 296.444 54.927,296.702 55.356,296.920 55.440 C 297.141 55.525,297.316 55.952,297.316 56.407 C 297.316 56.855,297.502 57.407,297.729 57.634 C 298.023 57.929,298.142 58.646,298.142 60.132 C 298.142 61.801,298.224 62.216,298.555 62.216 C 298.919 62.216,298.968 64.984,298.968 85.478 L 298.968 108.741 309.291 108.741 L 319.615 108.741 319.615 80.514 C 319.615 55.678,319.565 52.269,319.202 52.130 C 318.886 52.009,318.789 51.491,318.789 49.936 C 318.789 48.311,318.706 47.901,318.376 47.901 C 318.089 47.901,317.963 47.613,317.963 46.960 C 317.963 45.747,317.726 45.148,317.245 45.148 C 317.003 45.148,316.862 44.844,316.862 44.322 C 316.862 43.772,316.724 43.496,316.449 43.496 C 316.173 43.496,316.036 43.221,316.036 42.670 C 316.036 42.120,315.898 41.844,315.623 41.844 C 315.347 41.844,315.210 41.568,315.210 41.010 C 315.210 40.522,315.038 40.110,314.797 40.017 C 314.570 39.930,314.384 39.686,314.384 39.475 C 314.384 39.264,314.198 39.092,313.971 39.092 C 313.744 39.092,313.558 38.906,313.558 38.679 C 313.558 38.451,313.372 38.266,313.145 38.266 C 312.918 38.266,312.732 38.080,312.732 37.853 C 312.732 37.626,312.546 37.440,312.319 37.440 C 312.092 37.440,311.906 37.254,311.906 37.027 C 311.906 36.800,311.734 36.614,311.523 36.614 C 311.312 36.614,311.068 36.428,310.981 36.201 C 310.894 35.974,310.633 35.788,310.401 35.788 C 310.169 35.788,309.979 35.602,309.979 35.375 C 309.979 35.100,309.704 34.962,309.153 34.962 C 308.699 34.962,308.328 34.825,308.328 34.657 C 308.328 34.121,307.110 33.045,306.499 33.040 C 306.174 33.037,305.838 32.849,305.750 32.622 C 305.660 32.385,305.249 32.209,304.787 32.209 C 304.325 32.209,303.914 32.033,303.823 31.796 C 303.720 31.526,303.291 31.383,302.585 31.383 C 301.878 31.383,301.449 31.240,301.346 30.970 C 301.221 30.646,300.660 30.557,298.730 30.557 C 296.801 30.557,296.240 30.469,296.115 30.145 C 295.881 29.535,290.434 29.535,290.434 30.145 C 290.434 30.483,289.959 30.557,287.818 30.557 C 285.677 30.557,285.203 30.632,285.203 30.970 C 285.203 31.276,284.882 31.383,283.964 31.383 C 283.047 31.383,282.725 31.490,282.725 31.796 C 282.725 32.103,282.403 32.209,281.478 32.209 C 280.623 32.209,280.181 32.339,280.072 32.622 C 279.985 32.849,279.613 33.035,279.246 33.035 C 278.879 33.035,278.510 33.213,278.427 33.431 C 278.343 33.649,277.913 33.907,277.472 34.004 C 277.030 34.101,276.669 34.356,276.669 34.571 C 276.669 34.786,276.496 34.962,276.285 34.962 C 276.075 34.962,275.831 35.148,275.744 35.375 C 275.651 35.616,275.238 35.788,274.751 35.788 C 274.192 35.788,273.916 35.925,273.916 36.201 C 273.916 36.428,273.730 36.614,273.503 36.614 C 273.276 36.614,273.090 36.786,273.090 36.996 C 273.090 37.209,272.727 37.431,272.264 37.499 L 271.438 37.620 271.438 20.324 L 271.438 3.028 261.115 3.028 L 250.791 3.028 250.791 55.884 M60.664 30.145 C 60.539 30.469,59.979 30.557,58.057 30.557 C 56.065 30.557,55.609 30.634,55.609 30.970 C 55.609 31.282,55.273 31.383,54.233 31.383 C 53.193 31.383,52.856 31.484,52.856 31.796 C 52.856 32.083,52.568 32.209,51.912 32.209 C 51.393 32.209,50.799 32.379,50.592 32.586 C 50.385 32.793,49.971 33.040,49.672 33.135 C 49.373 33.230,48.720 33.680,48.222 34.135 C 47.724 34.590,47.200 34.962,47.058 34.962 C 46.916 34.962,46.800 35.148,46.800 35.375 C 46.800 35.612,46.551 35.788,46.217 35.788 C 45.631 35.788,43.496 37.684,43.496 38.204 C 43.496 38.357,43.310 38.553,43.083 38.641 C 42.856 38.728,42.670 39.051,42.670 39.358 C 42.670 39.672,42.489 39.917,42.257 39.917 C 42.028 39.917,41.844 40.162,41.844 40.468 C 41.844 40.771,41.668 41.019,41.453 41.019 C 41.238 41.019,40.981 41.390,40.881 41.844 C 40.781 42.299,40.524 42.670,40.308 42.670 C 40.061 42.670,39.917 42.962,39.917 43.467 C 39.917 43.921,39.740 44.331,39.504 44.422 C 39.230 44.527,39.092 44.960,39.092 45.710 C 39.092 46.346,38.911 47.019,38.679 47.252 C 38.070 47.861,38.070 57.031,38.679 57.536 C 38.931 57.746,39.092 58.350,39.092 59.093 C 39.092 59.918,39.224 60.357,39.504 60.465 C 39.732 60.552,39.917 60.912,39.917 61.266 C 39.917 61.619,40.054 61.993,40.221 62.096 C 40.388 62.199,40.699 62.702,40.913 63.213 C 41.126 63.725,41.423 64.143,41.573 64.143 C 41.722 64.143,41.844 64.329,41.844 64.556 C 41.844 64.783,42.017 64.969,42.228 64.969 C 42.438 64.969,42.688 65.279,42.783 65.657 C 42.878 66.036,43.078 66.345,43.226 66.345 C 43.375 66.345,43.496 66.593,43.496 66.896 C 43.496 67.202,43.680 67.447,43.909 67.447 C 44.136 67.447,44.322 67.632,44.322 67.860 C 44.322 68.087,44.508 68.273,44.735 68.273 C 44.962 68.273,45.148 68.458,45.148 68.685 C 45.148 68.913,45.334 69.098,45.561 69.098 C 45.788 69.098,45.974 69.225,45.974 69.380 C 45.974 69.534,46.315 69.810,46.731 69.993 C 47.147 70.176,47.587 70.483,47.708 70.676 C 47.829 70.868,48.108 71.025,48.328 71.025 C 48.547 71.025,48.727 71.211,48.727 71.438 C 48.727 71.666,48.913 71.851,49.140 71.851 C 49.367 71.851,49.553 72.037,49.553 72.264 C 49.553 72.540,49.828 72.677,50.379 72.677 C 50.929 72.677,51.204 72.815,51.204 73.090 C 51.204 73.317,51.390 73.503,51.617 73.503 C 51.844 73.503,52.030 73.689,52.030 73.916 C 52.030 74.191,52.306 74.329,52.856 74.329 C 53.407 74.329,53.682 74.467,53.682 74.742 C 53.682 75.030,53.973 75.155,54.646 75.155 C 55.426 75.155,55.609 75.260,55.609 75.705 C 55.609 76.134,55.793 76.256,56.435 76.256 C 56.986 76.256,57.261 76.394,57.261 76.669 C 57.261 76.944,57.536 77.082,58.087 77.082 C 58.637 77.082,58.913 77.220,58.913 77.495 C 58.913 77.770,59.188 77.908,59.738 77.908 C 60.289 77.908,60.564 78.045,60.564 78.321 C 60.564 78.609,60.855 78.734,61.528 78.734 C 62.201 78.734,62.491 78.858,62.491 79.147 C 62.491 79.422,62.767 79.560,63.317 79.560 C 63.868 79.560,64.143 79.697,64.143 79.972 C 64.143 80.200,64.314 80.385,64.522 80.385 C 64.731 80.385,65.056 80.571,65.244 80.798 C 65.433 81.025,65.820 81.211,66.104 81.211 C 66.388 81.211,66.621 81.397,66.621 81.624 C 66.621 81.854,66.865 82.037,67.171 82.037 C 67.474 82.037,67.722 82.213,67.722 82.428 C 67.722 82.643,68.094 82.901,68.548 83.001 C 69.002 83.100,69.374 83.343,69.374 83.539 C 69.374 83.736,69.560 84.051,69.787 84.240 C 70.014 84.428,70.200 84.815,70.200 85.099 C 70.200 85.383,70.385 85.616,70.613 85.616 C 70.934 85.616,71.025 85.984,71.025 87.276 C 71.025 88.498,70.916 88.979,70.613 89.095 C 70.385 89.182,70.200 89.426,70.200 89.637 C 70.200 89.848,70.014 90.021,69.787 90.021 C 69.560 90.021,69.374 90.206,69.374 90.434 C 69.374 90.661,69.184 90.847,68.952 90.847 C 68.720 90.847,68.459 91.032,68.372 91.259 C 68.284 91.489,67.875 91.672,67.451 91.672 C 67.031 91.672,66.534 91.858,66.345 92.085 C 66.091 92.392,65.411 92.498,63.697 92.498 C 61.830 92.498,61.390 92.420,61.390 92.085 C 61.390 91.779,61.069 91.672,60.151 91.672 C 59.234 91.672,58.913 91.565,58.913 91.259 C 58.913 90.984,58.637 90.847,58.087 90.847 C 57.536 90.847,57.261 90.709,57.261 90.434 C 57.261 90.158,56.986 90.021,56.435 90.021 C 55.930 90.021,55.609 89.878,55.609 89.653 C 55.609 89.451,54.994 88.987,54.243 88.621 C 53.492 88.255,52.873 87.801,52.867 87.612 C 52.861 87.423,52.670 87.268,52.443 87.268 C 52.216 87.268,52.030 87.082,52.030 86.855 C 52.030 86.628,51.904 86.442,51.750 86.442 C 51.596 86.442,50.936 85.884,50.283 85.203 C 49.014 83.878,46.800 83.353,46.800 84.377 C 46.800 84.604,46.614 84.790,46.387 84.790 C 46.160 84.790,45.974 84.976,45.974 85.203 C 45.974 85.430,45.788 85.616,45.561 85.616 C 45.334 85.616,45.148 85.802,45.148 86.029 C 45.148 86.256,44.962 86.442,44.735 86.442 C 44.508 86.442,44.322 86.628,44.322 86.855 C 44.322 87.082,44.136 87.268,43.909 87.268 C 43.682 87.268,43.496 87.440,43.496 87.651 C 43.496 87.862,43.310 88.106,43.083 88.193 C 42.856 88.280,42.670 88.541,42.670 88.773 C 42.670 89.005,42.485 89.195,42.257 89.195 C 42.030 89.195,41.844 89.381,41.844 89.608 C 41.844 89.835,41.659 90.021,41.432 90.021 C 41.204 90.021,41.019 90.206,41.019 90.434 C 41.019 90.661,40.833 90.847,40.606 90.847 C 40.379 90.847,40.193 91.013,40.193 91.217 C 40.193 91.420,39.945 91.811,39.642 92.085 C 39.339 92.359,39.092 92.750,39.092 92.954 C 39.092 93.158,38.906 93.324,38.679 93.324 C 38.451 93.324,38.266 93.510,38.266 93.737 C 38.266 93.964,38.080 94.150,37.853 94.150 C 37.626 94.150,37.440 94.336,37.440 94.563 C 37.440 94.790,37.254 94.976,37.027 94.976 C 36.800 94.976,36.614 95.148,36.614 95.359 C 36.614 95.570,36.428 95.814,36.201 95.901 C 35.909 96.013,35.788 96.469,35.788 97.454 C 35.788 98.438,35.909 98.894,36.201 99.006 C 36.428 99.093,36.614 99.399,36.614 99.685 C 36.614 99.972,36.800 100.206,37.027 100.206 C 37.254 100.206,37.440 100.392,37.440 100.619 C 37.440 100.847,37.626 101.032,37.853 101.032 C 38.080 101.032,38.266 101.218,38.266 101.445 C 38.266 101.672,38.451 101.858,38.679 101.858 C 38.906 101.858,39.092 102.044,39.092 102.271 C 39.092 102.498,39.220 102.684,39.376 102.684 C 39.533 102.684,40.020 103.051,40.458 103.500 C 40.897 103.949,41.574 104.396,41.963 104.493 C 42.352 104.591,42.670 104.843,42.670 105.054 C 42.670 105.265,42.856 105.437,43.083 105.437 C 43.310 105.437,43.496 105.623,43.496 105.850 C 43.496 106.125,43.772 106.263,44.322 106.263 C 44.873 106.263,45.148 106.401,45.148 106.676 C 45.148 106.903,45.381 107.089,45.665 107.089 C 45.949 107.089,46.336 107.275,46.524 107.502 C 46.713 107.729,47.286 107.915,47.797 107.915 C 48.440 107.915,48.727 108.042,48.727 108.328 C 48.727 108.603,49.002 108.741,49.553 108.741 C 50.103 108.741,50.379 108.878,50.379 109.153 C 50.379 109.475,50.746 109.566,52.030 109.566 C 53.259 109.566,53.682 109.665,53.682 109.950 C 53.682 110.514,54.310 110.667,56.664 110.676 C 58.082 110.682,58.950 110.818,59.309 111.089 C 60.082 111.674,65.857 111.667,66.444 111.081 C 66.745 110.779,67.480 110.668,69.164 110.668 C 71.092 110.668,71.570 110.577,72.063 110.117 C 72.474 109.734,73.035 109.566,73.905 109.566 C 74.832 109.566,75.155 109.460,75.155 109.153 C 75.155 108.865,75.445 108.741,76.118 108.741 C 76.791 108.741,77.082 108.616,77.082 108.328 C 77.082 108.052,77.357 107.915,77.908 107.915 C 78.458 107.915,78.734 107.777,78.734 107.502 C 78.734 107.226,79.009 107.089,79.560 107.089 C 80.110 107.089,80.385 106.951,80.385 106.676 C 80.385 106.449,80.571 106.263,80.798 106.263 C 81.025 106.263,81.211 106.077,81.211 105.850 C 81.211 105.575,81.487 105.437,82.037 105.437 C 82.588 105.437,82.863 105.299,82.863 105.024 C 82.863 104.797,83.004 104.611,83.176 104.611 C 83.543 104.611,84.790 103.324,84.790 102.945 C 84.790 102.802,84.976 102.684,85.203 102.684 C 85.430 102.684,85.616 102.512,85.616 102.301 C 85.616 102.090,85.802 101.846,86.029 101.759 C 86.256 101.672,86.442 101.287,86.442 100.903 C 86.442 100.467,86.596 100.206,86.855 100.206 C 87.082 100.206,87.268 100.021,87.268 99.794 C 87.268 99.566,87.454 99.381,87.681 99.381 C 87.956 99.381,88.094 99.105,88.094 98.555 C 88.094 98.004,88.231 97.729,88.507 97.729 C 88.795 97.729,88.919 97.438,88.919 96.765 C 88.919 96.128,89.049 95.802,89.300 95.802 C 89.705 95.802,90.005 95.006,90.026 93.875 C 90.033 93.496,90.220 92.946,90.442 92.652 C 91.044 91.857,91.036 81.165,90.434 80.562 C 90.206 80.335,90.021 79.695,90.021 79.140 C 90.021 78.363,89.894 78.098,89.470 77.988 C 89.025 77.871,88.919 77.612,88.919 76.637 C 88.919 75.748,88.811 75.430,88.507 75.430 C 88.277 75.430,88.094 75.185,88.094 74.880 C 88.094 74.574,87.910 74.329,87.681 74.329 C 87.405 74.329,87.268 74.054,87.268 73.503 C 87.268 72.953,87.130 72.677,86.855 72.677 C 86.628 72.677,86.442 72.491,86.442 72.264 C 86.442 72.037,86.256 71.851,86.029 71.851 C 85.802 71.851,85.616 71.666,85.616 71.438 C 85.616 71.211,85.430 71.025,85.203 71.025 C 84.976 71.025,84.790 70.840,84.790 70.613 C 84.790 70.385,84.604 70.200,84.377 70.200 C 84.150 70.200,83.964 70.014,83.964 69.787 C 83.964 69.560,83.778 69.374,83.551 69.374 C 83.324 69.374,83.138 69.188,83.138 68.961 C 83.138 68.734,83.037 68.548,82.913 68.548 C 82.788 68.548,82.266 68.172,81.751 67.712 C 81.236 67.252,80.532 66.805,80.187 66.719 C 79.842 66.632,79.560 66.389,79.560 66.178 C 79.560 65.967,79.389 65.795,79.180 65.795 C 78.972 65.795,78.647 65.609,78.458 65.382 C 78.270 65.155,77.896 64.969,77.628 64.969 C 77.360 64.969,77.069 64.783,76.982 64.556 C 76.890 64.315,76.477 64.143,75.989 64.143 C 75.431 64.143,75.155 64.006,75.155 63.730 C 75.155 63.455,74.880 63.317,74.329 63.317 C 73.778 63.317,73.503 63.180,73.503 62.904 C 73.503 62.633,73.231 62.491,72.709 62.491 C 72.147 62.491,71.874 62.331,71.772 61.941 C 71.676 61.576,71.396 61.390,70.943 61.390 C 70.567 61.390,70.187 61.204,70.100 60.977 C 70.007 60.736,69.595 60.564,69.107 60.564 C 68.549 60.564,68.273 60.428,68.273 60.151 C 68.273 59.876,67.997 59.738,67.447 59.738 C 66.896 59.738,66.621 59.601,66.621 59.326 C 66.621 59.050,66.345 58.913,65.795 58.913 C 65.244 58.913,64.969 58.775,64.969 58.500 C 64.969 58.224,64.694 58.087,64.143 58.087 C 63.593 58.087,63.317 57.949,63.317 57.674 C 63.317 57.447,63.083 57.261,62.796 57.261 C 62.510 57.261,62.204 57.075,62.117 56.848 C 62.029 56.621,61.645 56.435,61.261 56.435 C 60.825 56.435,60.564 56.280,60.564 56.022 C 60.564 55.795,60.440 55.609,60.289 55.609 C 59.947 55.609,58.913 54.596,58.913 54.262 C 58.913 54.127,58.727 53.945,58.500 53.858 C 58.217 53.749,58.087 53.307,58.087 52.452 C 58.087 51.527,58.193 51.204,58.500 51.204 C 58.727 51.204,58.913 51.019,58.913 50.791 C 58.913 50.564,59.098 50.379,59.326 50.379 C 59.553 50.379,59.738 50.193,59.738 49.966 C 59.738 49.661,60.056 49.553,60.948 49.553 C 61.769 49.553,62.208 49.420,62.316 49.140 C 62.423 48.859,62.863 48.727,63.692 48.727 C 64.521 48.727,64.961 48.859,65.069 49.140 C 65.176 49.421,65.616 49.553,66.445 49.553 C 67.274 49.553,67.714 49.685,67.822 49.966 C 67.909 50.193,68.280 50.379,68.647 50.379 C 69.014 50.379,69.386 50.564,69.473 50.791 C 69.560 51.019,69.945 51.204,70.329 51.204 C 70.765 51.204,71.025 51.359,71.025 51.617 C 71.025 51.844,71.198 52.030,71.409 52.030 C 71.620 52.030,71.864 52.216,71.951 52.443 C 72.038 52.670,72.423 52.856,72.806 52.856 C 73.242 52.856,73.503 53.011,73.503 53.269 C 73.503 53.496,73.689 53.682,73.916 53.682 C 74.143 53.682,74.329 53.868,74.329 54.095 C 74.329 54.322,74.506 54.508,74.723 54.508 C 74.940 54.508,75.196 54.756,75.292 55.058 C 75.389 55.361,75.682 55.609,75.944 55.609 C 76.207 55.609,76.539 55.717,76.683 55.849 C 77.051 56.186,78.734 55.424,78.734 54.920 C 78.734 54.693,78.919 54.508,79.147 54.508 C 79.374 54.508,79.560 54.322,79.560 54.095 C 79.560 53.868,79.745 53.682,79.972 53.682 C 80.200 53.682,80.385 53.496,80.385 53.269 C 80.385 53.042,80.571 52.856,80.798 52.856 C 81.025 52.856,81.211 52.670,81.211 52.443 C 81.211 52.216,81.397 52.030,81.624 52.030 C 81.851 52.030,82.037 51.844,82.037 51.617 C 82.037 51.390,82.175 51.204,82.342 51.204 C 82.740 51.204,85.616 48.329,85.616 47.931 C 85.616 47.763,85.802 47.626,86.029 47.626 C 86.256 47.626,86.442 47.440,86.442 47.213 C 86.442 46.986,86.628 46.800,86.855 46.800 C 87.082 46.800,87.268 46.614,87.268 46.387 C 87.268 46.160,87.454 45.974,87.681 45.974 C 87.908 45.974,88.094 45.788,88.094 45.561 C 88.094 45.334,88.279 45.148,88.507 45.148 C 88.734 45.148,88.919 44.975,88.919 44.764 C 88.919 44.554,89.105 44.310,89.332 44.223 C 89.560 44.135,89.745 43.750,89.745 43.367 C 89.745 42.931,89.591 42.670,89.332 42.670 C 89.105 42.670,88.919 42.485,88.919 42.257 C 88.919 42.030,88.734 41.844,88.507 41.844 C 88.231 41.844,88.094 41.569,88.094 41.019 C 88.094 40.468,87.956 40.193,87.681 40.193 C 87.454 40.193,87.268 40.059,87.268 39.896 C 87.268 39.421,85.001 37.440,84.458 37.440 C 84.186 37.440,83.964 37.254,83.964 37.027 C 83.964 36.800,83.778 36.614,83.551 36.614 C 83.324 36.614,83.138 36.428,83.138 36.201 C 83.138 35.972,82.894 35.788,82.588 35.788 C 82.282 35.788,82.037 35.604,82.037 35.375 C 82.037 35.104,81.765 34.962,81.243 34.962 C 80.681 34.962,80.408 34.802,80.306 34.412 C 80.208 34.040,79.930 33.861,79.448 33.861 C 78.997 33.861,78.734 33.709,78.734 33.448 C 78.734 33.176,78.462 33.035,77.937 33.035 C 77.483 33.035,77.073 32.858,76.982 32.622 C 76.890 32.381,76.477 32.209,75.989 32.209 C 75.431 32.209,75.155 32.073,75.155 31.796 C 75.155 31.486,74.822 31.383,73.812 31.383 C 72.954 31.383,72.346 31.234,72.127 30.970 C 71.867 30.657,71.161 30.557,69.202 30.557 C 67.091 30.557,66.621 30.482,66.621 30.145 C 66.621 29.804,66.115 29.732,63.722 29.732 C 61.398 29.732,60.791 29.814,60.664 30.145 M207.472 30.145 C 207.173 30.443,206.445 30.557,204.837 30.557 C 203.046 30.557,202.615 30.637,202.615 30.970 C 202.615 31.274,202.300 31.383,201.429 31.383 C 200.777 31.383,200.002 31.565,199.709 31.788 C 199.415 32.010,198.840 32.196,198.431 32.200 C 198.022 32.205,197.588 32.364,197.467 32.553 C 197.346 32.743,196.763 33.144,196.172 33.446 C 195.580 33.747,195.039 34.212,194.969 34.478 C 194.900 34.744,194.625 34.962,194.358 34.962 C 194.091 34.962,193.719 35.148,193.531 35.375 C 193.342 35.602,193.017 35.788,192.809 35.788 C 192.600 35.788,192.429 35.974,192.429 36.201 C 192.429 36.428,192.286 36.614,192.112 36.614 C 191.595 36.614,189.677 38.792,189.677 39.378 C 189.677 39.675,189.491 39.917,189.264 39.917 C 189.034 39.917,188.851 40.162,188.851 40.468 C 188.851 40.774,188.667 41.019,188.438 41.019 C 188.162 41.019,188.025 41.294,188.025 41.844 C 188.025 42.395,187.887 42.670,187.612 42.670 C 187.337 42.670,187.199 42.946,187.199 43.496 C 187.199 44.047,187.061 44.322,186.786 44.322 C 186.481 44.322,186.373 44.642,186.373 45.547 C 186.373 46.428,186.238 46.848,185.891 47.042 C 185.082 47.494,185.006 56.995,185.805 57.794 C 186.189 58.178,186.373 58.718,186.373 59.463 C 186.373 60.258,186.488 60.564,186.786 60.564 C 187.062 60.564,187.199 60.841,187.199 61.399 C 187.199 61.887,187.370 62.299,187.612 62.392 C 187.839 62.479,188.025 62.851,188.025 63.218 C 188.025 63.585,188.211 63.956,188.438 64.044 C 188.665 64.131,188.851 64.375,188.851 64.586 C 188.851 64.796,189.036 64.969,189.264 64.969 C 189.491 64.969,189.677 65.208,189.677 65.500 C 189.677 65.792,189.862 66.217,190.089 66.444 C 190.317 66.671,190.502 66.989,190.502 67.152 C 190.502 67.314,190.623 67.447,190.770 67.447 C 190.918 67.447,191.575 67.973,192.230 68.617 C 193.588 69.949,195.025 71.025,195.447 71.025 C 195.604 71.025,195.733 71.211,195.733 71.438 C 195.733 71.666,195.919 71.851,196.146 71.851 C 196.373 71.851,196.559 72.037,196.559 72.264 C 196.559 72.540,196.834 72.677,197.385 72.677 C 197.935 72.677,198.211 72.815,198.211 73.090 C 198.211 73.317,198.383 73.503,198.594 73.503 C 198.805 73.503,199.049 73.689,199.136 73.916 C 199.229 74.157,199.641 74.329,200.129 74.329 C 200.687 74.329,200.964 74.466,200.964 74.742 C 200.964 75.013,201.235 75.155,201.757 75.155 C 202.320 75.155,202.593 75.315,202.695 75.705 C 202.792 76.077,203.071 76.256,203.553 76.256 C 204.004 76.256,204.267 76.408,204.267 76.669 C 204.267 76.941,204.539 77.082,205.063 77.082 C 205.517 77.082,205.928 77.259,206.018 77.495 C 206.111 77.736,206.523 77.908,207.011 77.908 C 207.570 77.908,207.846 78.044,207.846 78.321 C 207.846 78.596,208.121 78.734,208.672 78.734 C 209.222 78.734,209.498 78.871,209.498 79.147 C 209.498 79.374,209.730 79.560,210.014 79.560 C 210.299 79.560,210.686 79.745,210.874 79.972 C 211.063 80.200,211.391 80.385,211.605 80.385 C 211.818 80.385,212.064 80.571,212.151 80.798 C 212.241 81.034,212.652 81.211,213.106 81.211 C 213.630 81.211,213.902 81.352,213.902 81.624 C 213.902 81.851,214.088 82.037,214.315 82.037 C 214.542 82.037,214.728 82.223,214.728 82.450 C 214.728 82.677,214.848 82.863,214.994 82.863 C 215.415 82.863,217.206 84.765,217.206 85.212 C 217.206 85.434,217.392 85.616,217.619 85.616 C 217.940 85.616,218.032 85.984,218.032 87.276 C 218.032 88.498,217.923 88.979,217.619 89.095 C 217.392 89.182,217.206 89.426,217.206 89.637 C 217.206 89.848,217.020 90.021,216.793 90.021 C 216.566 90.021,216.380 90.206,216.380 90.434 C 216.380 90.661,216.194 90.847,215.967 90.847 C 215.740 90.847,215.554 91.032,215.554 91.259 C 215.554 91.558,215.247 91.672,214.444 91.672 C 213.712 91.672,213.281 91.813,213.176 92.085 C 212.946 92.684,208.802 92.684,208.572 92.085 C 208.464 91.802,208.021 91.672,207.166 91.672 C 206.241 91.672,205.919 91.566,205.919 91.259 C 205.919 90.984,205.643 90.847,205.093 90.847 C 204.542 90.847,204.267 90.709,204.267 90.434 C 204.267 90.158,203.992 90.021,203.441 90.021 C 202.885 90.021,202.615 89.884,202.615 89.601 C 202.615 89.357,202.277 89.113,201.807 89.019 C 201.362 88.930,200.933 88.686,200.852 88.476 C 200.771 88.266,200.516 88.094,200.284 88.094 C 200.052 88.094,199.862 87.908,199.862 87.681 C 199.862 87.454,199.677 87.268,199.449 87.268 C 199.222 87.268,199.036 87.082,199.036 86.855 C 199.036 86.628,198.851 86.442,198.624 86.442 C 198.396 86.442,198.211 86.256,198.211 86.029 C 198.211 85.802,198.025 85.616,197.798 85.616 C 197.571 85.616,197.385 85.430,197.385 85.203 C 197.385 84.976,197.199 84.790,196.972 84.790 C 196.745 84.790,196.559 84.604,196.559 84.377 C 196.559 84.071,196.238 83.964,195.320 83.964 C 194.402 83.964,194.081 84.071,194.081 84.377 C 194.081 84.604,193.895 84.790,193.668 84.790 C 193.441 84.790,193.255 84.976,193.255 85.203 C 193.255 85.432,193.011 85.616,192.705 85.616 C 192.399 85.616,192.154 85.799,192.154 86.029 C 192.154 86.256,191.968 86.442,191.741 86.442 C 191.514 86.442,191.328 86.628,191.328 86.855 C 191.328 87.082,191.142 87.268,190.915 87.268 C 190.688 87.268,190.502 87.440,190.502 87.651 C 190.502 87.862,190.317 88.106,190.089 88.193 C 189.862 88.280,189.677 88.541,189.677 88.773 C 189.677 89.005,189.491 89.195,189.264 89.195 C 189.036 89.195,188.851 89.381,188.851 89.608 C 188.851 89.835,188.665 90.021,188.438 90.021 C 188.211 90.021,188.025 90.206,188.025 90.434 C 188.025 90.661,187.839 90.847,187.612 90.847 C 187.385 90.847,187.199 91.019,187.199 91.230 C 187.199 91.441,187.013 91.685,186.786 91.772 C 186.559 91.859,186.373 92.090,186.373 92.286 C 186.373 92.481,186.125 92.796,185.822 92.985 C 185.520 93.174,185.272 93.514,185.272 93.739 C 185.272 93.965,185.086 94.150,184.859 94.150 C 184.632 94.150,184.446 94.336,184.446 94.563 C 184.446 94.790,184.260 94.976,184.033 94.976 C 183.806 94.976,183.620 95.148,183.620 95.359 C 183.620 95.570,183.434 95.814,183.207 95.901 C 182.378 96.220,182.661 98.883,183.608 99.669 C 184.056 100.040,184.428 100.499,184.434 100.688 C 184.441 100.877,184.619 101.032,184.829 101.032 C 185.040 101.032,185.284 101.218,185.371 101.445 C 185.459 101.672,185.720 101.858,185.951 101.858 C 186.183 101.858,186.373 102.044,186.373 102.271 C 186.373 102.498,186.559 102.684,186.786 102.684 C 187.013 102.684,187.199 102.835,187.199 103.019 C 187.199 103.503,188.571 104.611,189.169 104.611 C 189.448 104.611,189.677 104.797,189.677 105.024 C 189.677 105.251,189.862 105.437,190.089 105.437 C 190.317 105.437,190.502 105.623,190.502 105.850 C 190.502 106.125,190.778 106.263,191.328 106.263 C 191.879 106.263,192.154 106.401,192.154 106.676 C 192.154 106.903,192.389 107.089,192.675 107.089 C 192.962 107.089,193.268 107.275,193.355 107.502 C 193.442 107.729,193.836 107.915,194.230 107.915 C 194.624 107.915,195.132 108.100,195.359 108.328 C 195.586 108.555,196.135 108.741,196.579 108.741 C 197.112 108.741,197.385 108.880,197.385 109.153 C 197.385 109.461,197.709 109.566,198.649 109.566 C 199.496 109.566,200.144 109.748,200.613 110.117 C 201.187 110.569,201.730 110.668,203.636 110.668 C 205.385 110.668,206.065 110.775,206.393 111.103 C 206.954 111.663,213.369 111.582,213.559 111.012 C 213.639 110.771,214.408 110.668,216.128 110.668 C 218.215 110.668,218.665 110.585,219.133 110.117 C 219.521 109.728,220.050 109.566,220.931 109.566 C 221.786 109.566,222.228 109.436,222.337 109.153 C 222.427 108.918,222.838 108.741,223.292 108.741 C 223.816 108.741,224.088 108.599,224.088 108.328 C 224.088 108.052,224.363 107.915,224.914 107.915 C 225.465 107.915,225.740 107.777,225.740 107.502 C 225.740 107.226,226.015 107.089,226.566 107.089 C 227.116 107.089,227.392 106.951,227.392 106.676 C 227.392 106.446,227.636 106.263,227.942 106.263 C 228.248 106.263,228.493 106.079,228.493 105.850 C 228.493 105.623,228.710 105.435,228.975 105.434 C 229.504 105.430,231.796 103.429,231.796 102.970 C 231.796 102.813,231.982 102.684,232.209 102.684 C 232.436 102.684,232.622 102.512,232.622 102.301 C 232.622 102.090,232.808 101.846,233.035 101.759 C 233.262 101.672,233.448 101.287,233.448 100.903 C 233.448 100.467,233.603 100.206,233.861 100.206 C 234.088 100.206,234.274 100.021,234.274 99.794 C 234.274 99.566,234.450 99.381,234.665 99.381 C 234.880 99.381,235.135 99.019,235.232 98.578 C 235.329 98.136,235.587 97.706,235.805 97.623 C 236.023 97.539,236.205 97.126,236.210 96.705 C 236.215 96.284,236.400 95.699,236.623 95.405 C 236.845 95.111,237.027 94.337,237.027 93.684 C 237.027 92.814,237.137 92.498,237.440 92.498 C 237.794 92.498,237.853 91.676,237.853 86.751 C 237.853 81.978,237.783 80.945,237.440 80.661 C 237.188 80.452,237.027 79.848,237.027 79.113 C 237.027 78.225,236.918 77.908,236.614 77.908 C 236.339 77.908,236.201 77.632,236.201 77.082 C 236.201 76.531,236.063 76.256,235.788 76.256 C 235.510 76.256,235.375 75.978,235.375 75.404 C 235.375 74.784,235.225 74.514,234.825 74.409 C 234.435 74.307,234.274 74.033,234.274 73.471 C 234.274 72.949,234.133 72.677,233.861 72.677 C 233.634 72.677,233.448 72.491,233.448 72.264 C 233.448 72.037,233.262 71.851,233.035 71.851 C 232.808 71.851,232.622 71.666,232.622 71.438 C 232.622 71.211,232.436 71.025,232.209 71.025 C 231.982 71.025,231.796 70.840,231.796 70.613 C 231.796 70.385,231.610 70.200,231.383 70.200 C 231.156 70.200,230.970 70.014,230.970 69.787 C 230.970 69.560,230.785 69.374,230.557 69.374 C 230.330 69.374,230.145 69.244,230.145 69.085 C 230.145 68.681,228.766 67.447,228.315 67.447 C 228.110 67.447,227.942 67.325,227.942 67.177 C 227.942 67.028,227.632 66.829,227.254 66.734 C 226.875 66.639,226.566 66.389,226.566 66.178 C 226.566 65.967,226.333 65.795,226.049 65.795 C 225.765 65.795,225.378 65.609,225.189 65.382 C 225.001 65.155,224.676 64.969,224.467 64.969 C 224.259 64.969,224.088 64.783,224.088 64.556 C 224.088 64.281,223.813 64.143,223.262 64.143 C 222.712 64.143,222.436 64.006,222.436 63.730 C 222.436 63.442,222.146 63.317,221.473 63.317 C 220.800 63.317,220.509 63.193,220.509 62.904 C 220.509 62.633,220.238 62.491,219.716 62.491 C 219.153 62.491,218.880 62.331,218.778 61.941 C 218.680 61.569,218.402 61.390,217.920 61.390 C 217.469 61.390,217.206 61.238,217.206 60.977 C 217.206 60.702,216.930 60.564,216.380 60.564 C 215.829 60.564,215.554 60.427,215.554 60.151 C 215.554 59.863,215.263 59.738,214.591 59.738 C 213.918 59.738,213.627 59.614,213.627 59.326 C 213.627 59.050,213.352 58.913,212.801 58.913 C 212.251 58.913,211.975 58.775,211.975 58.500 C 211.975 58.224,211.700 58.087,211.149 58.087 C 210.599 58.087,210.323 57.949,210.323 57.674 C 210.323 57.447,210.091 57.261,209.807 57.261 C 209.522 57.261,209.135 57.075,208.947 56.848 C 208.759 56.621,208.434 56.435,208.225 56.435 C 208.016 56.435,207.846 56.318,207.846 56.175 C 207.846 56.032,207.505 55.752,207.089 55.554 C 206.672 55.356,206.209 54.916,206.060 54.576 C 205.911 54.236,205.632 53.957,205.441 53.957 C 205.207 53.957,205.093 53.506,205.093 52.581 C 205.093 51.541,205.194 51.204,205.506 51.204 C 205.733 51.204,205.919 51.019,205.919 50.791 C 205.919 50.564,206.105 50.379,206.332 50.379 C 206.559 50.379,206.745 50.193,206.745 49.966 C 206.745 49.659,207.067 49.553,207.992 49.553 C 208.847 49.553,209.289 49.423,209.398 49.140 C 209.502 48.869,209.932 48.727,210.648 48.727 C 211.251 48.727,211.924 48.912,212.152 49.140 C 212.379 49.367,213.039 49.553,213.617 49.553 C 214.298 49.553,214.725 49.698,214.828 49.966 C 214.915 50.193,215.286 50.379,215.654 50.379 C 216.021 50.379,216.392 50.564,216.479 50.791 C 216.567 51.019,216.952 51.204,217.335 51.204 C 217.771 51.204,218.032 51.359,218.032 51.617 C 218.032 51.844,218.204 52.030,218.415 52.030 C 218.626 52.030,218.870 52.216,218.957 52.443 C 219.050 52.685,219.462 52.856,219.950 52.856 C 220.508 52.856,220.785 52.993,220.785 53.269 C 220.785 53.496,220.970 53.682,221.198 53.682 C 221.425 53.682,221.610 53.868,221.610 54.095 C 221.610 54.322,221.782 54.508,221.991 54.508 C 222.201 54.508,222.437 54.756,222.516 55.058 C 222.748 55.947,225.740 55.792,225.740 54.891 C 225.740 54.680,225.926 54.508,226.153 54.508 C 226.380 54.508,226.566 54.322,226.566 54.095 C 226.566 53.868,226.752 53.682,226.979 53.682 C 227.206 53.682,227.392 53.496,227.392 53.269 C 227.392 53.042,227.521 52.856,227.679 52.856 C 228.053 52.856,232.622 48.287,232.622 47.913 C 232.622 47.755,232.808 47.626,233.035 47.626 C 233.262 47.626,233.448 47.440,233.448 47.213 C 233.448 46.986,233.634 46.800,233.861 46.800 C 234.088 46.800,234.274 46.614,234.274 46.387 C 234.274 46.160,234.398 45.974,234.549 45.974 C 235.343 45.974,236.958 43.592,236.484 43.119 C 236.328 42.963,236.201 42.613,236.201 42.340 C 236.201 42.067,236.015 41.844,235.788 41.844 C 235.561 41.844,235.375 41.678,235.375 41.474 C 235.375 41.271,235.127 40.880,234.825 40.606 C 234.522 40.332,234.274 40.003,234.274 39.875 C 234.274 39.415,231.826 37.440,231.257 37.440 C 231.099 37.440,230.970 37.254,230.970 37.027 C 230.970 36.800,230.785 36.614,230.557 36.614 C 230.330 36.614,230.145 36.428,230.145 36.201 C 230.145 35.974,229.955 35.788,229.723 35.788 C 229.491 35.788,229.230 35.602,229.143 35.375 C 229.053 35.140,228.642 34.962,228.188 34.962 C 227.658 34.962,227.392 34.822,227.392 34.542 C 227.392 34.296,227.050 34.054,226.566 33.957 C 226.111 33.866,225.740 33.622,225.740 33.414 C 225.740 33.177,225.431 33.035,224.914 33.035 C 224.363 33.035,224.088 32.897,224.088 32.622 C 224.088 32.346,223.812 32.209,223.254 32.209 C 222.766 32.209,222.353 32.038,222.261 31.796 C 222.152 31.515,221.712 31.383,220.873 31.383 C 220.148 31.383,219.475 31.214,219.231 30.970 C 218.922 30.662,218.163 30.557,216.223 30.557 C 214.099 30.557,213.627 30.482,213.627 30.145 C 213.627 29.804,213.124 29.732,210.756 29.732 C 208.571 29.732,207.786 29.830,207.472 30.145 M103.785 56.707 C 103.785 78.305,103.834 81.211,104.198 81.211 C 104.539 81.211,104.611 81.717,104.611 84.110 C 104.611 86.434,104.693 87.041,105.024 87.168 C 105.311 87.278,105.437 87.727,105.437 88.640 C 105.437 89.471,105.589 90.079,105.850 90.296 C 106.077 90.484,106.263 91.057,106.263 91.568 C 106.263 92.211,106.390 92.498,106.676 92.498 C 106.931 92.498,107.089 92.757,107.089 93.175 C 107.089 94.054,107.953 95.786,108.396 95.795 C 108.592 95.799,108.741 96.151,108.741 96.614 C 108.741 97.061,108.898 97.525,109.090 97.646 C 109.283 97.767,109.590 98.207,109.773 98.624 C 109.956 99.040,110.232 99.381,110.386 99.381 C 110.541 99.381,110.668 99.566,110.668 99.794 C 110.668 100.021,110.853 100.206,111.081 100.206 C 111.308 100.206,111.493 100.392,111.493 100.619 C 111.493 100.847,111.679 101.032,111.906 101.032 C 112.134 101.032,112.319 101.218,112.319 101.445 C 112.319 101.672,112.505 101.858,112.732 101.858 C 112.959 101.858,113.145 102.044,113.145 102.271 C 113.145 102.498,113.331 102.684,113.558 102.684 C 113.785 102.684,113.971 102.823,113.971 102.992 C 113.971 103.466,116.053 105.437,116.554 105.437 C 116.799 105.437,116.999 105.559,116.999 105.707 C 116.999 105.856,117.309 106.055,117.688 106.150 C 118.066 106.245,118.376 106.495,118.376 106.706 C 118.376 106.948,118.680 107.089,119.202 107.089 C 119.752 107.089,120.028 107.226,120.028 107.502 C 120.028 107.777,120.303 107.915,120.853 107.915 C 121.404 107.915,121.679 108.052,121.679 108.328 C 121.679 108.640,122.016 108.741,123.056 108.741 C 124.096 108.741,124.432 108.841,124.432 109.153 C 124.432 109.459,124.752 109.566,125.657 109.566 C 126.538 109.566,126.958 109.702,127.152 110.048 C 127.374 110.446,127.893 110.545,130.125 110.615 C 131.714 110.665,133.186 110.864,133.696 111.097 C 134.944 111.667,140.749 111.655,141.323 111.081 C 141.636 110.768,142.414 110.668,144.535 110.668 C 147.102 110.668,147.345 110.622,147.477 110.117 C 147.600 109.645,147.853 109.566,149.241 109.566 C 150.497 109.566,150.860 109.474,150.860 109.153 C 150.860 108.847,151.182 108.741,152.108 108.741 C 152.963 108.741,153.405 108.611,153.514 108.328 C 153.604 108.092,154.015 107.915,154.469 107.915 C 154.993 107.915,155.265 107.774,155.265 107.502 C 155.265 107.243,155.526 107.089,155.962 107.089 C 156.345 107.089,156.730 106.903,156.817 106.676 C 156.904 106.449,157.148 106.263,157.359 106.263 C 157.570 106.263,157.743 106.077,157.743 105.850 C 157.743 105.592,158.004 105.437,158.439 105.437 C 158.823 105.437,159.208 105.251,159.295 105.024 C 159.382 104.797,159.595 104.609,159.768 104.606 C 160.165 104.600,161.321 103.397,161.321 102.989 C 161.321 102.821,161.507 102.684,161.734 102.684 C 161.961 102.684,162.147 102.498,162.147 102.271 C 162.147 102.044,162.333 101.858,162.560 101.858 C 162.787 101.858,162.973 101.672,162.973 101.445 C 162.973 101.218,163.159 101.032,163.386 101.032 C 163.613 101.032,163.799 100.847,163.799 100.619 C 163.799 100.392,163.985 100.206,164.212 100.206 C 164.487 100.206,164.625 99.931,164.625 99.381 C 164.625 98.883,164.768 98.555,164.986 98.555 C 165.480 98.555,166.552 97.054,166.552 96.364 C 166.552 96.048,166.733 95.802,166.965 95.802 C 167.240 95.802,167.378 95.526,167.378 94.976 C 167.378 94.425,167.515 94.150,167.791 94.150 C 168.066 94.150,168.204 93.875,168.204 93.324 C 168.204 92.774,168.341 92.498,168.617 92.498 C 168.902 92.498,169.030 92.211,169.030 91.568 C 169.030 91.057,169.215 90.484,169.443 90.296 C 169.731 90.057,169.855 89.422,169.855 88.198 C 169.855 86.820,169.945 86.442,170.268 86.442 C 170.610 86.442,170.681 85.925,170.681 83.443 C 170.681 81.031,170.762 80.413,171.094 80.286 C 171.457 80.147,171.507 77.211,171.507 56.165 L 171.507 32.203 161.253 32.275 L 150.998 32.347 150.928 55.837 C 150.866 76.246,150.803 79.381,150.446 79.738 C 150.190 79.994,150.031 80.687,150.026 81.575 C 150.021 82.390,149.844 83.230,149.613 83.535 C 149.390 83.829,149.209 84.417,149.209 84.843 C 149.209 85.347,149.065 85.616,148.796 85.616 C 148.568 85.616,148.383 85.802,148.383 86.029 C 148.383 86.256,148.197 86.442,147.970 86.442 C 147.740 86.442,147.557 86.687,147.557 86.992 C 147.557 87.298,147.373 87.543,147.144 87.543 C 146.917 87.543,146.731 87.729,146.731 87.956 C 146.731 88.183,146.545 88.369,146.318 88.369 C 146.091 88.369,145.905 88.555,145.905 88.782 C 145.905 89.009,145.719 89.195,145.492 89.195 C 145.265 89.195,145.079 89.381,145.079 89.608 C 145.079 89.883,144.804 90.021,144.253 90.021 C 143.703 90.021,143.427 90.158,143.427 90.434 C 143.427 90.722,143.137 90.847,142.464 90.847 C 141.791 90.847,141.500 90.971,141.500 91.259 C 141.500 91.607,140.889 91.672,137.646 91.672 C 134.404 91.672,133.792 91.607,133.792 91.259 C 133.792 90.988,133.520 90.847,132.996 90.847 C 132.542 90.847,132.131 90.669,132.041 90.434 C 131.948 90.192,131.536 90.021,131.048 90.021 C 130.482 90.021,130.213 89.885,130.213 89.599 C 130.213 89.367,130.028 89.106,129.800 89.019 C 129.573 88.932,129.387 88.688,129.387 88.477 C 129.387 88.266,129.202 88.094,128.975 88.094 C 128.747 88.094,128.562 87.908,128.562 87.681 C 128.562 87.454,128.376 87.268,128.149 87.268 C 127.922 87.268,127.736 87.082,127.736 86.855 C 127.736 86.628,127.550 86.442,127.323 86.442 C 127.047 86.442,126.910 86.167,126.910 85.616 C 126.910 85.065,126.772 84.790,126.497 84.790 C 126.200 84.790,126.084 84.486,126.084 83.703 C 126.084 83.061,125.926 82.525,125.700 82.395 C 125.430 82.240,125.287 81.455,125.218 79.756 C 125.156 78.218,124.996 77.260,124.778 77.125 C 124.510 76.960,124.420 72.041,124.365 54.630 L 124.295 32.347 114.040 32.275 L 103.785 32.203 103.785 56.707 M339.384 32.415 C 341.854 32.461,345.818 32.461,348.194 32.415 C 350.569 32.369,348.548 32.332,343.703 32.332 C 338.858 32.332,336.914 32.370,339.384 32.415 M334.923 33.746 C 334.701 34.323,334.706 106.772,334.928 107.880 L 335.100 108.741 343.703 108.741 L 352.306 108.741 352.478 107.880 C 352.699 106.772,352.704 34.323,352.483 33.746 C 352.229 33.084,335.177 33.084,334.923 33.746 M219.959 139.436 C 219.959 139.665,219.714 139.849,219.408 139.849 C 219.102 139.849,218.858 140.032,218.858 140.262 C 218.858 140.489,218.672 140.674,218.445 140.674 C 218.217 140.674,218.032 140.860,218.032 141.087 C 218.032 141.315,217.846 141.500,217.619 141.500 C 217.392 141.500,217.206 141.673,217.206 141.884 C 217.206 142.095,217.020 142.339,216.793 142.426 C 216.566 142.513,216.376 142.929,216.371 143.350 C 216.366 143.771,216.181 144.356,215.958 144.650 C 215.371 145.426,215.379 150.034,215.967 150.034 C 216.253 150.034,216.380 150.321,216.380 150.964 C 216.380 151.476,216.566 152.048,216.793 152.237 C 217.020 152.425,217.206 152.707,217.206 152.864 C 217.206 153.427,219.428 155.265,220.108 155.265 C 220.526 155.265,220.785 155.423,220.785 155.678 C 220.785 156.025,221.381 156.091,224.501 156.091 C 227.621 156.091,228.217 156.025,228.217 155.678 C 228.217 155.402,228.494 155.265,229.052 155.265 C 229.540 155.265,229.952 155.093,230.045 154.852 C 230.132 154.625,230.376 154.439,230.587 154.439 C 230.798 154.439,230.970 154.267,230.970 154.056 C 230.970 153.845,231.156 153.601,231.383 153.514 C 231.610 153.427,231.796 153.181,231.796 152.967 C 231.796 152.754,231.982 152.425,232.209 152.237 C 232.436 152.048,232.622 151.476,232.622 150.964 C 232.622 150.321,232.750 150.034,233.035 150.034 C 233.623 150.034,233.631 145.426,233.044 144.650 C 232.822 144.356,232.636 143.771,232.631 143.350 C 232.626 142.929,232.436 142.513,232.209 142.426 C 231.982 142.339,231.796 142.095,231.796 141.884 C 231.796 141.673,231.610 141.500,231.383 141.500 C 231.156 141.500,230.970 141.315,230.970 141.087 C 230.970 140.860,230.785 140.674,230.557 140.674 C 230.330 140.674,230.145 140.489,230.145 140.262 C 230.145 140.034,229.910 139.849,229.623 139.849 C 229.337 139.849,229.031 139.663,228.944 139.436 C 228.812 139.092,228.041 139.023,224.372 139.023 C 220.633 139.023,219.959 139.086,219.959 139.436 M342.923 141.684 C 342.822 141.785,342.739 148.165,342.739 155.861 L 342.739 169.855 336.263 169.855 L 329.787 169.855 329.863 174.604 L 329.938 179.353 336.339 179.427 L 342.739 179.501 342.739 212.949 L 342.739 246.398 348.727 246.323 L 354.714 246.249 354.784 212.870 L 354.854 179.491 362.148 179.491 L 369.443 179.491 369.443 174.673 L 369.443 169.855 362.147 169.855 L 354.852 169.855 354.852 156.008 C 354.852 145.605,354.770 142.079,354.522 141.831 C 354.165 141.474,343.271 141.336,342.923 141.684 M68.548 167.791 C 68.548 168.133,68.028 168.204,65.520 168.204 C 63.011 168.204,62.491 168.275,62.491 168.617 C 62.491 168.933,62.143 169.030,61.011 169.030 C 60.031 169.030,59.415 169.169,59.188 169.443 C 58.999 169.670,58.489 169.855,58.053 169.855 C 57.532 169.855,57.261 169.997,57.261 170.268 C 57.261 170.526,57.001 170.681,56.571 170.681 C 55.830 170.681,53.131 172.020,53.131 172.387 C 53.131 172.509,52.884 172.608,52.581 172.608 C 52.275 172.608,52.030 172.792,52.030 173.021 C 52.030 173.297,51.755 173.434,51.204 173.434 C 50.654 173.434,50.379 173.572,50.379 173.847 C 50.379 174.074,50.193 174.260,49.966 174.260 C 49.738 174.260,49.553 174.446,49.553 174.673 C 49.553 174.900,49.367 175.086,49.140 175.086 C 48.913 175.086,48.727 175.272,48.727 175.499 C 48.727 175.741,48.471 175.916,48.107 175.921 C 47.767 175.925,47.060 176.359,46.538 176.884 C 46.015 177.409,45.489 177.839,45.368 177.839 C 45.247 177.839,45.148 178.025,45.148 178.252 C 45.148 178.479,44.962 178.665,44.735 178.665 C 44.508 178.665,44.322 178.851,44.322 179.078 C 44.322 179.305,44.136 179.491,43.909 179.491 C 43.634 179.491,43.496 179.766,43.496 180.317 C 43.496 180.862,43.358 181.142,43.089 181.142 C 42.745 181.142,42.670 180.271,42.607 175.568 L 42.533 169.993 36.958 169.919 L 31.383 169.844 31.383 221.880 L 31.383 273.916 37.027 273.916 L 42.670 273.916 42.670 255.058 C 42.670 238.480,42.720 236.201,43.083 236.201 C 43.310 236.201,43.496 236.387,43.496 236.614 C 43.496 236.841,43.682 237.027,43.909 237.027 C 44.136 237.027,44.322 237.213,44.322 237.440 C 44.322 237.667,44.508 237.853,44.735 237.853 C 44.962 237.853,45.148 238.039,45.148 238.266 C 45.148 238.493,45.334 238.679,45.561 238.679 C 45.788 238.679,45.974 238.864,45.974 239.092 C 45.974 239.319,46.160 239.504,46.387 239.504 C 46.614 239.504,46.800 239.690,46.800 239.917 C 46.800 240.147,47.044 240.330,47.350 240.330 C 47.653 240.330,47.901 240.506,47.901 240.721 C 47.901 240.937,48.273 241.194,48.727 241.294 C 49.181 241.394,49.553 241.651,49.553 241.866 C 49.553 242.081,49.738 242.257,49.966 242.257 C 50.193 242.257,50.379 242.443,50.379 242.670 C 50.379 242.946,50.654 243.083,51.204 243.083 C 51.755 243.083,52.030 243.221,52.030 243.496 C 52.030 243.723,52.265 243.909,52.551 243.909 C 52.838 243.909,53.144 244.095,53.231 244.322 C 53.318 244.549,53.703 244.735,54.086 244.735 C 54.522 244.735,54.783 244.890,54.783 245.148 C 54.783 245.454,55.104 245.561,56.022 245.561 C 56.940 245.561,57.261 245.668,57.261 245.974 C 57.261 246.250,57.537 246.387,58.095 246.387 C 58.583 246.387,58.996 246.558,59.088 246.800 C 59.204 247.102,59.681 247.213,60.869 247.213 C 62.072 247.213,62.491 247.312,62.491 247.596 C 62.491 248.165,63.125 248.314,65.552 248.314 C 67.086 248.314,67.940 248.444,68.407 248.750 C 69.258 249.308,75.723 249.228,75.912 248.658 C 75.992 248.417,76.767 248.314,78.507 248.314 C 80.756 248.314,81.001 248.262,81.132 247.763 C 81.257 247.285,81.507 247.213,83.033 247.213 C 84.411 247.213,84.790 247.124,84.790 246.800 C 84.790 246.494,85.111 246.387,86.029 246.387 C 86.947 246.387,87.268 246.280,87.268 245.974 C 87.268 245.699,87.543 245.561,88.094 245.561 C 88.644 245.561,88.919 245.423,88.919 245.148 C 88.919 244.872,89.196 244.735,89.754 244.735 C 90.242 244.735,90.654 244.563,90.747 244.322 C 90.834 244.095,91.206 243.909,91.573 243.909 C 91.940 243.909,92.312 243.723,92.399 243.496 C 92.486 243.269,92.730 243.083,92.941 243.083 C 93.152 243.083,93.324 242.897,93.324 242.670 C 93.324 242.412,93.585 242.257,94.021 242.257 C 94.404 242.257,94.789 242.072,94.876 241.844 C 94.964 241.617,95.207 241.432,95.418 241.432 C 95.629 241.432,95.802 241.184,95.802 240.881 C 95.802 240.514,95.985 240.330,96.352 240.330 C 96.655 240.330,96.903 240.159,96.903 239.950 C 96.903 239.740,97.120 239.496,97.385 239.407 C 98.785 238.937,101.290 236.432,101.761 235.031 C 101.850 234.766,102.094 234.549,102.303 234.549 C 102.513 234.549,102.684 234.301,102.684 233.999 C 102.684 233.632,102.868 233.448,103.235 233.448 C 103.538 233.448,103.785 233.275,103.785 233.065 C 103.785 232.854,103.971 232.610,104.198 232.523 C 104.425 232.435,104.611 232.051,104.611 231.667 C 104.611 231.231,104.766 230.970,105.024 230.970 C 105.251 230.970,105.437 230.798,105.437 230.587 C 105.437 230.376,105.623 230.132,105.850 230.045 C 106.077 229.958,106.263 229.573,106.263 229.190 C 106.263 228.754,106.418 228.493,106.676 228.493 C 106.964 228.493,107.089 228.202,107.089 227.529 C 107.089 226.856,107.213 226.566,107.502 226.566 C 107.777 226.566,107.915 226.290,107.915 225.740 C 107.915 225.189,108.052 224.914,108.328 224.914 C 108.599 224.914,108.741 224.642,108.741 224.118 C 108.741 223.664,108.918 223.253,109.153 223.163 C 109.426 223.058,109.566 222.627,109.566 221.894 C 109.566 221.152,109.749 220.602,110.117 220.234 C 110.543 219.808,110.668 219.316,110.668 218.061 C 110.668 216.873,110.778 216.396,111.081 216.280 C 111.672 216.053,111.703 200.379,111.113 199.889 C 110.896 199.709,110.681 198.851,110.611 197.892 C 110.528 196.742,110.343 196.103,110.028 195.872 C 109.725 195.650,109.566 195.144,109.566 194.395 C 109.566 193.565,109.454 193.255,109.153 193.255 C 108.865 193.255,108.741 192.965,108.741 192.292 C 108.741 191.619,108.616 191.328,108.328 191.328 C 108.052 191.328,107.915 191.053,107.915 190.502 C 107.915 189.952,107.777 189.677,107.502 189.677 C 107.226 189.677,107.089 189.401,107.089 188.851 C 107.089 188.300,106.951 188.025,106.676 188.025 C 106.401 188.025,106.263 187.749,106.263 187.199 C 106.263 186.648,106.125 186.373,105.850 186.373 C 105.623 186.373,105.437 186.183,105.437 185.951 C 105.437 185.720,105.251 185.459,105.024 185.371 C 104.797 185.284,104.611 184.998,104.611 184.735 C 104.611 184.160,103.491 182.794,103.019 182.794 C 102.835 182.794,102.684 182.608,102.684 182.381 C 102.684 182.154,102.498 181.968,102.271 181.968 C 102.044 181.968,101.858 181.783,101.858 181.555 C 101.858 181.328,101.672 181.142,101.445 181.142 C 101.218 181.142,101.032 180.957,101.032 180.730 C 101.032 180.502,100.847 180.317,100.619 180.317 C 100.392 180.317,100.206 180.150,100.206 179.946 C 100.206 179.471,99.275 178.390,98.867 178.390 C 98.695 178.390,98.555 178.204,98.555 177.977 C 98.555 177.749,98.400 177.558,98.211 177.552 C 98.021 177.546,97.563 177.174,97.191 176.726 C 96.820 176.278,96.355 175.912,96.159 175.912 C 95.962 175.912,95.802 175.726,95.802 175.499 C 95.802 175.272,95.631 175.086,95.423 175.086 C 95.214 175.086,94.889 174.900,94.701 174.673 C 94.512 174.446,94.125 174.260,93.841 174.260 C 93.557 174.260,93.324 174.074,93.324 173.847 C 93.324 173.620,93.092 173.434,92.807 173.434 C 92.523 173.434,92.136 173.248,91.948 173.021 C 91.759 172.794,91.430 172.608,91.217 172.608 C 91.004 172.608,90.762 172.434,90.680 172.220 C 90.598 172.007,90.216 171.753,89.830 171.656 C 89.444 171.559,88.949 171.300,88.729 171.081 C 88.509 170.861,88.044 170.681,87.695 170.681 C 87.346 170.681,86.906 170.496,86.717 170.268 C 86.529 170.041,85.969 169.855,85.474 169.855 C 84.928 169.855,84.511 169.693,84.415 169.443 C 84.301 169.144,83.834 169.030,82.734 169.030 C 81.564 169.030,81.211 168.934,81.211 168.617 C 81.211 168.275,80.695 168.204,78.213 168.204 C 75.801 168.204,75.183 168.123,75.055 167.791 C 74.927 167.457,74.290 167.378,71.722 167.378 C 69.084 167.378,68.548 167.448,68.548 167.791 M160.595 167.791 C 160.468 168.123,159.849 168.204,157.438 168.204 C 154.956 168.204,154.439 168.275,154.439 168.617 C 154.439 168.938,154.072 169.030,152.787 169.030 C 151.503 169.030,151.136 169.121,151.136 169.443 C 151.136 169.740,150.832 169.855,150.054 169.855 C 149.459 169.855,148.787 170.041,148.560 170.268 C 148.333 170.496,147.886 170.681,147.568 170.681 C 147.249 170.681,146.923 170.853,146.842 171.063 C 146.762 171.274,146.332 171.518,145.887 171.607 C 145.417 171.701,145.079 171.944,145.079 172.189 C 145.079 172.472,144.809 172.608,144.245 172.608 C 143.757 172.608,143.344 172.780,143.252 173.021 C 143.164 173.248,142.921 173.434,142.710 173.434 C 142.499 173.434,142.326 173.620,142.326 173.847 C 142.326 174.123,142.051 174.260,141.500 174.260 C 140.950 174.260,140.674 174.398,140.674 174.673 C 140.674 174.900,140.489 175.086,140.262 175.086 C 140.034 175.086,139.849 175.258,139.849 175.469 C 139.849 175.680,139.539 175.930,139.160 176.025 C 138.782 176.120,138.472 176.319,138.472 176.468 C 138.472 176.616,138.316 176.738,138.126 176.738 C 137.936 176.738,137.382 177.171,136.896 177.701 C 136.409 178.231,135.884 178.665,135.728 178.665 C 135.572 178.665,135.444 178.851,135.444 179.078 C 135.444 179.305,135.258 179.491,135.031 179.491 C 134.804 179.491,134.618 179.663,134.618 179.874 C 134.618 180.085,134.432 180.329,134.205 180.416 C 133.978 180.503,133.792 180.764,133.792 180.996 C 133.792 181.228,133.671 181.418,133.522 181.418 C 133.374 181.418,133.174 181.727,133.079 182.106 C 132.984 182.485,132.734 182.794,132.523 182.794 C 132.313 182.794,132.140 182.980,132.140 183.207 C 132.140 183.434,131.955 183.620,131.727 183.620 C 131.498 183.620,131.315 183.865,131.315 184.171 C 131.315 184.474,131.139 184.721,130.923 184.721 C 130.708 184.721,130.451 185.093,130.351 185.547 C 130.251 186.001,129.994 186.373,129.779 186.373 C 129.563 186.373,129.387 186.606,129.387 186.890 C 129.387 187.174,129.202 187.561,128.975 187.749 C 128.747 187.938,128.562 188.250,128.562 188.442 C 128.562 188.634,128.376 188.863,128.149 188.950 C 127.912 189.041,127.736 189.452,127.736 189.914 C 127.736 190.375,127.560 190.786,127.323 190.877 C 127.050 190.982,126.910 191.413,126.910 192.146 C 126.910 192.948,126.796 193.255,126.497 193.255 C 126.191 193.255,126.084 193.577,126.084 194.494 C 126.084 195.412,125.977 195.733,125.671 195.733 C 125.360 195.733,125.258 196.066,125.258 197.076 C 125.258 197.933,125.109 198.542,124.845 198.761 C 124.525 199.027,124.432 199.771,124.432 202.085 C 124.432 204.637,124.363 205.104,123.950 205.335 C 123.235 205.736,123.238 211.300,123.954 211.824 C 124.356 212.118,124.432 212.639,124.432 215.103 C 124.432 217.523,124.504 218.032,124.845 218.032 C 125.166 218.032,125.258 218.399,125.258 219.683 C 125.258 220.968,125.350 221.335,125.671 221.335 C 125.967 221.335,126.084 221.637,126.084 222.403 C 126.084 223.016,126.260 223.616,126.497 223.813 C 126.724 224.001,126.910 224.512,126.910 224.948 C 126.910 225.468,127.051 225.740,127.323 225.740 C 127.595 225.740,127.736 226.012,127.736 226.536 C 127.736 226.990,127.913 227.401,128.149 227.491 C 128.376 227.578,128.562 227.967,128.562 228.355 C 128.562 228.743,128.747 229.132,128.975 229.219 C 129.202 229.306,129.387 229.550,129.387 229.761 C 129.387 229.972,129.558 230.145,129.766 230.145 C 129.974 230.145,130.219 230.516,130.310 230.970 C 130.407 231.455,130.648 231.796,130.895 231.796 C 131.126 231.796,131.315 231.982,131.315 232.209 C 131.315 232.436,131.500 232.622,131.727 232.622 C 132.003 232.622,132.140 232.897,132.140 233.448 C 132.140 233.999,132.278 234.274,132.553 234.274 C 132.780 234.274,132.966 234.464,132.966 234.695 C 132.966 234.927,133.152 235.188,133.379 235.276 C 133.606 235.363,133.792 235.607,133.792 235.817 C 133.792 236.028,133.978 236.201,134.205 236.201 C 134.432 236.201,134.618 236.387,134.618 236.614 C 134.618 236.841,134.804 237.027,135.031 237.027 C 135.258 237.027,135.444 237.213,135.444 237.440 C 135.444 237.667,135.630 237.853,135.857 237.853 C 136.084 237.853,136.270 238.039,136.270 238.266 C 136.270 238.493,136.442 238.679,136.653 238.679 C 136.864 238.679,137.108 238.864,137.195 239.092 C 137.282 239.319,137.543 239.504,137.775 239.504 C 138.007 239.504,138.197 239.690,138.197 239.917 C 138.197 240.145,138.383 240.330,138.610 240.330 C 138.837 240.330,139.023 240.506,139.023 240.721 C 139.023 240.937,139.394 241.194,139.849 241.294 C 140.303 241.394,140.674 241.651,140.674 241.866 C 140.674 242.081,140.847 242.257,141.058 242.257 C 141.269 242.257,141.513 242.443,141.600 242.670 C 141.687 242.897,142.072 243.083,142.455 243.083 C 142.891 243.083,143.152 243.238,143.152 243.496 C 143.152 243.723,143.369 243.913,143.634 243.918 C 143.899 243.923,144.356 244.109,144.650 244.331 C 144.944 244.553,145.355 244.735,145.564 244.735 C 145.773 244.735,146.130 244.921,146.357 245.148 C 146.584 245.375,147.133 245.561,147.576 245.561 C 148.110 245.561,148.383 245.701,148.383 245.974 C 148.383 246.278,148.701 246.387,149.592 246.387 C 150.413 246.387,150.852 246.519,150.960 246.800 C 151.068 247.083,151.511 247.213,152.366 247.213 C 153.246 247.213,153.775 247.375,154.164 247.763 C 154.633 248.233,155.089 248.315,157.261 248.323 C 159.062 248.329,159.964 248.450,160.342 248.736 C 161.119 249.323,167.437 249.316,168.027 248.727 C 168.333 248.421,169.082 248.314,170.914 248.314 C 173.622 248.314,174.260 248.177,174.260 247.596 C 174.260 247.311,174.684 247.213,175.912 247.213 C 177.197 247.213,177.564 247.121,177.564 246.800 C 177.564 246.495,177.882 246.387,178.773 246.387 C 179.594 246.387,180.033 246.254,180.141 245.974 C 180.233 245.732,180.646 245.561,181.134 245.561 C 181.692 245.561,181.968 245.424,181.968 245.148 C 181.968 244.873,182.244 244.735,182.794 244.735 C 183.345 244.735,183.620 244.597,183.620 244.322 C 183.620 244.047,183.895 243.909,184.446 243.909 C 184.997 243.909,185.272 243.772,185.272 243.496 C 185.272 243.238,185.533 243.083,185.969 243.083 C 186.352 243.083,186.737 242.897,186.824 242.670 C 186.911 242.443,187.124 242.255,187.297 242.253 C 187.694 242.247,188.851 241.043,188.851 240.636 C 188.851 240.468,189.164 240.330,189.548 240.330 C 189.931 240.330,190.316 240.145,190.403 239.917 C 190.490 239.690,190.734 239.504,190.945 239.504 C 191.156 239.504,191.328 239.319,191.328 239.092 C 191.328 238.864,191.514 238.679,191.741 238.679 C 191.968 238.679,192.154 238.493,192.154 238.266 C 192.154 238.039,192.287 237.853,192.450 237.853 C 192.715 237.853,193.439 237.125,195.162 235.126 C 195.476 234.763,195.733 234.236,195.733 233.957 C 195.733 233.677,195.919 233.448,196.146 233.448 C 196.373 233.448,196.559 233.262,196.559 233.035 C 196.559 232.808,196.745 232.622,196.972 232.622 C 197.199 232.622,197.385 232.452,197.385 232.243 C 197.385 232.034,197.571 231.709,197.798 231.521 C 198.025 231.333,198.211 230.946,198.211 230.661 C 198.211 230.377,198.396 230.145,198.624 230.145 C 198.899 230.145,199.036 229.869,199.036 229.319 C 199.036 228.768,199.174 228.493,199.449 228.493 C 199.677 228.493,199.862 228.264,199.862 227.985 C 199.862 227.706,200.110 227.253,200.413 226.979 C 200.718 226.703,200.964 226.131,200.964 225.697 C 200.964 225.185,201.106 224.914,201.376 224.914 C 201.648 224.914,201.789 224.642,201.789 224.118 C 201.789 223.664,201.967 223.253,202.202 223.163 C 202.476 223.058,202.615 222.626,202.615 221.886 C 202.615 221.146,202.755 220.714,203.028 220.609 C 203.329 220.493,203.441 220.019,203.441 218.858 C 203.441 217.696,203.553 217.222,203.854 217.106 C 204.465 216.872,204.473 200.515,203.863 199.709 C 203.633 199.405,203.455 198.565,203.450 197.763 C 203.444 196.853,203.294 196.229,203.028 196.008 C 202.790 195.811,202.615 195.210,202.615 194.589 C 202.615 193.887,202.472 193.458,202.202 193.355 C 201.966 193.264,201.789 192.853,201.789 192.391 C 201.789 191.930,201.613 191.519,201.376 191.428 C 201.149 191.341,200.964 190.961,200.964 190.585 C 200.964 190.132,200.777 189.852,200.413 189.756 C 200.023 189.654,199.862 189.381,199.862 188.819 C 199.862 188.297,199.721 188.025,199.449 188.025 C 199.174 188.025,199.036 187.749,199.036 187.199 C 199.036 186.648,198.899 186.373,198.624 186.373 C 198.396 186.373,198.211 186.183,198.211 185.951 C 198.211 185.720,198.025 185.459,197.798 185.371 C 197.571 185.284,197.385 184.913,197.385 184.546 C 197.385 184.178,197.199 183.807,196.972 183.720 C 196.745 183.632,196.559 183.389,196.559 183.178 C 196.559 182.967,196.373 182.794,196.146 182.794 C 195.919 182.794,195.733 182.608,195.733 182.381 C 195.733 182.154,195.547 181.968,195.320 181.968 C 195.093 181.968,194.907 181.802,194.907 181.598 C 194.907 181.394,194.659 181.004,194.357 180.730 C 194.054 180.455,193.806 180.065,193.806 179.861 C 193.806 179.657,193.620 179.491,193.393 179.491 C 193.166 179.491,192.980 179.305,192.980 179.078 C 192.980 178.851,192.794 178.665,192.567 178.665 C 192.340 178.665,192.154 178.479,192.154 178.252 C 192.154 178.025,191.988 177.839,191.784 177.839 C 191.580 177.839,191.189 177.591,190.915 177.288 C 190.641 176.986,190.250 176.738,190.047 176.738 C 189.843 176.738,189.677 176.552,189.677 176.325 C 189.677 176.098,189.491 175.912,189.264 175.912 C 189.036 175.912,188.851 175.726,188.851 175.499 C 188.851 175.272,188.678 175.086,188.467 175.086 C 188.256 175.086,188.012 174.900,187.925 174.673 C 187.838 174.446,187.453 174.260,187.070 174.260 C 186.634 174.260,186.373 174.106,186.373 173.847 C 186.373 173.618,186.128 173.434,185.822 173.434 C 185.517 173.434,185.272 173.251,185.272 173.021 C 185.272 172.746,184.997 172.608,184.446 172.608 C 183.924 172.608,183.620 172.467,183.620 172.225 C 183.620 172.015,183.295 171.761,182.899 171.661 C 182.502 171.562,181.997 171.300,181.778 171.081 C 181.558 170.861,181.088 170.681,180.733 170.681 C 180.378 170.681,180.045 170.555,179.993 170.400 C 179.942 170.245,179.405 170.040,178.800 169.945 C 178.196 169.850,177.602 169.605,177.481 169.401 C 177.339 169.161,176.726 169.030,175.752 169.030 C 174.665 169.030,174.199 168.914,174.084 168.617 C 173.957 168.285,173.342 168.204,170.957 168.204 C 168.571 168.204,167.956 168.123,167.829 167.791 C 167.700 167.454,167.032 167.378,164.212 167.378 C 161.392 167.378,160.724 167.454,160.595 167.791 M284.377 167.791 C 284.377 168.132,283.871 168.204,281.478 168.204 C 279.155 168.204,278.547 168.286,278.420 168.617 C 278.313 168.897,277.873 169.030,277.052 169.030 C 276.161 169.030,275.843 169.138,275.843 169.443 C 275.843 169.739,275.541 169.855,274.776 169.855 C 274.163 169.855,273.562 170.031,273.365 170.268 C 273.177 170.496,272.724 170.681,272.360 170.681 C 271.995 170.681,271.628 170.860,271.544 171.077 C 271.461 171.295,271.031 171.553,270.590 171.650 C 270.148 171.747,269.787 172.002,269.787 172.217 C 269.787 172.432,269.614 172.608,269.403 172.608 C 269.192 172.608,268.948 172.794,268.861 173.021 C 268.774 173.248,268.385 173.434,267.997 173.434 C 267.609 173.434,267.220 173.620,267.133 173.847 C 267.046 174.074,266.802 174.260,266.591 174.260 C 266.380 174.260,266.208 174.446,266.208 174.673 C 266.208 174.900,266.022 175.086,265.795 175.086 C 265.568 175.086,265.382 175.272,265.382 175.499 C 265.382 175.726,265.267 175.912,265.126 175.912 C 264.652 175.912,262.928 177.147,262.916 177.495 C 262.910 177.684,262.719 177.839,262.491 177.839 C 262.264 177.839,262.078 178.025,262.078 178.252 C 262.078 178.479,261.893 178.665,261.666 178.665 C 261.438 178.665,261.253 178.831,261.253 179.035 C 261.253 179.239,261.005 179.630,260.702 179.904 C 260.399 180.178,260.151 180.569,260.151 180.772 C 260.151 180.976,259.966 181.142,259.738 181.142 C 259.385 181.142,259.326 180.332,259.326 175.499 L 259.326 169.855 253.839 169.855 L 248.353 169.855 248.184 171.301 C 248.091 172.096,248.051 189.284,248.095 209.498 L 248.176 246.249 253.751 246.324 L 259.326 246.398 259.326 227.977 C 259.326 211.857,259.377 209.537,259.738 209.398 C 260.083 209.266,260.151 208.479,260.151 204.680 C 260.151 200.881,260.220 200.094,260.564 199.962 C 260.867 199.846,260.977 199.369,260.977 198.181 C 260.977 196.923,261.070 196.559,261.390 196.559 C 261.667 196.559,261.803 196.282,261.803 195.721 C 261.803 195.261,262.051 194.618,262.354 194.293 C 262.657 193.968,262.904 193.354,262.904 192.928 C 262.904 192.424,263.048 192.154,263.317 192.154 C 263.544 192.154,263.730 192.021,263.730 191.859 C 263.730 191.697,263.916 191.378,264.143 191.151 C 264.370 190.924,264.556 190.499,264.556 190.207 C 264.556 189.915,264.742 189.677,264.969 189.677 C 265.196 189.677,265.382 189.504,265.382 189.293 C 265.382 189.082,265.568 188.838,265.795 188.751 C 266.022 188.664,266.208 188.416,266.208 188.201 C 266.208 187.985,266.394 187.737,266.621 187.650 C 266.848 187.563,267.034 187.240,267.034 186.932 C 267.034 186.619,267.215 186.373,267.447 186.373 C 267.676 186.373,267.860 186.128,267.860 185.822 C 267.860 185.467,268.043 185.272,268.376 185.272 C 268.661 185.272,269.048 185.086,269.236 184.859 C 269.425 184.632,269.749 184.446,269.958 184.446 C 270.167 184.446,270.337 184.260,270.337 184.033 C 270.337 183.804,270.582 183.620,270.888 183.620 C 271.194 183.620,271.438 183.437,271.438 183.207 C 271.438 182.980,271.624 182.794,271.851 182.794 C 272.078 182.794,272.264 182.608,272.264 182.381 C 272.264 182.106,272.540 181.968,273.090 181.968 C 273.641 181.968,273.916 181.831,273.916 181.555 C 273.916 181.297,274.177 181.142,274.613 181.142 C 274.996 181.142,275.381 180.957,275.468 180.730 C 275.559 180.493,275.970 180.317,276.432 180.317 C 276.893 180.317,277.304 180.140,277.395 179.904 C 277.503 179.623,277.942 179.491,278.763 179.491 C 279.605 179.491,280.140 179.324,280.523 178.940 C 281.030 178.433,281.441 178.390,285.722 178.390 C 290.138 178.390,290.377 178.417,290.513 178.940 C 290.627 179.375,290.889 179.491,291.755 179.491 C 292.476 179.491,292.907 179.632,293.011 179.904 C 293.098 180.131,293.470 180.317,293.837 180.317 C 294.204 180.317,294.575 180.502,294.663 180.730 C 294.750 180.957,295.138 181.142,295.526 181.142 C 295.915 181.142,296.303 181.328,296.390 181.555 C 296.478 181.783,296.721 181.968,296.932 181.968 C 297.143 181.968,297.316 182.154,297.316 182.381 C 297.316 182.608,297.502 182.794,297.729 182.794 C 297.956 182.794,298.142 182.980,298.142 183.207 C 298.142 183.434,298.328 183.620,298.555 183.620 C 298.782 183.620,298.968 183.806,298.968 184.033 C 298.968 184.260,299.153 184.446,299.381 184.446 C 299.608 184.446,299.794 184.632,299.794 184.859 C 299.794 185.086,299.979 185.272,300.206 185.272 C 300.483 185.272,300.619 185.548,300.619 186.106 C 300.619 186.594,300.791 187.007,301.032 187.099 C 301.259 187.186,301.445 187.558,301.445 187.925 C 301.445 188.292,301.631 188.664,301.858 188.751 C 302.085 188.838,302.271 189.240,302.271 189.645 C 302.271 190.049,302.440 190.624,302.647 190.923 C 302.854 191.222,303.110 192.178,303.217 193.049 C 303.352 194.146,303.533 194.632,303.805 194.632 C 304.143 194.632,304.198 198.270,304.198 220.509 L 304.198 246.387 310.117 246.387 L 316.036 246.387 316.036 222.436 C 316.036 201.331,315.987 198.486,315.623 198.486 C 315.276 198.486,315.210 197.888,315.210 194.761 C 315.210 191.704,315.136 191.007,314.797 190.877 C 314.490 190.759,314.384 190.269,314.384 188.959 C 314.384 187.578,314.295 187.199,313.971 187.199 C 313.665 187.199,313.558 186.877,313.558 185.951 C 313.558 185.097,313.428 184.654,313.145 184.546 C 312.910 184.455,312.732 184.045,312.732 183.591 C 312.732 183.066,312.591 182.794,312.319 182.794 C 312.044 182.794,311.906 182.519,311.906 181.968 C 311.906 181.418,311.769 181.142,311.493 181.142 C 311.233 181.142,311.081 180.880,311.081 180.428 C 311.081 179.946,310.902 179.668,310.530 179.570 C 310.225 179.491,309.979 179.195,309.979 178.908 C 309.979 178.623,309.794 178.390,309.566 178.390 C 309.308 178.390,309.153 178.129,309.153 177.693 C 309.153 177.309,308.968 176.924,308.741 176.837 C 308.513 176.750,308.328 176.506,308.328 176.295 C 308.328 176.084,308.142 175.912,307.915 175.912 C 307.688 175.912,307.502 175.726,307.502 175.499 C 307.502 175.272,307.316 175.086,307.089 175.086 C 306.862 175.086,306.676 174.900,306.676 174.673 C 306.676 174.446,306.486 174.260,306.254 174.260 C 306.022 174.260,305.761 174.074,305.674 173.847 C 305.587 173.620,305.219 173.434,304.857 173.434 C 304.455 173.434,304.198 173.273,304.198 173.021 C 304.198 172.792,303.954 172.608,303.648 172.608 C 303.345 172.608,303.097 172.432,303.097 172.217 C 303.097 172.002,302.725 171.745,302.271 171.645 C 301.817 171.545,301.445 171.288,301.445 171.072 C 301.445 170.821,301.149 170.681,300.619 170.681 C 300.069 170.681,299.794 170.544,299.794 170.268 C 299.794 169.997,299.522 169.855,298.997 169.855 C 298.543 169.855,298.133 169.678,298.042 169.443 C 297.934 169.160,297.491 169.030,296.636 169.030 C 295.711 169.030,295.389 168.923,295.389 168.617 C 295.389 168.279,294.915 168.204,292.774 168.204 C 290.632 168.204,290.158 168.129,290.158 167.791 C 290.158 167.450,289.654 167.378,287.268 167.378 C 284.882 167.378,284.377 167.450,284.377 167.791 M218.858 208.121 L 218.858 246.387 224.501 246.387 L 230.145 246.387 230.145 208.121 L 230.145 169.855 224.501 169.855 L 218.858 169.855 218.858 208.121 M73.646 178.856 C 73.891 179.192,74.518 179.356,75.879 179.441 C 76.919 179.506,77.845 179.677,77.937 179.821 C 78.029 179.965,78.646 180.156,79.309 180.245 C 79.972 180.334,80.680 180.572,80.883 180.774 C 81.085 180.977,81.675 181.142,82.194 181.142 C 82.850 181.142,83.138 181.269,83.138 181.555 C 83.138 181.831,83.414 181.968,83.964 181.968 C 84.515 181.968,84.790 182.106,84.790 182.381 C 84.790 182.608,84.963 182.794,85.174 182.794 C 85.384 182.794,85.628 182.980,85.716 183.207 C 85.803 183.434,86.188 183.620,86.571 183.620 C 87.007 183.620,87.268 183.775,87.268 184.033 C 87.268 184.260,87.440 184.446,87.651 184.446 C 87.862 184.446,88.106 184.632,88.193 184.859 C 88.280 185.086,88.522 185.272,88.731 185.272 C 88.939 185.272,89.334 185.520,89.608 185.822 C 89.882 186.125,90.273 186.373,90.476 186.373 C 90.680 186.373,90.847 186.559,90.847 186.786 C 90.847 187.013,91.032 187.199,91.259 187.199 C 91.487 187.199,91.672 187.385,91.672 187.612 C 91.672 187.839,91.858 188.025,92.085 188.025 C 92.344 188.025,92.498 188.286,92.498 188.722 C 92.498 189.105,92.684 189.490,92.911 189.577 C 93.138 189.664,93.324 189.908,93.324 190.119 C 93.324 190.330,93.510 190.502,93.737 190.502 C 93.964 190.502,94.150 190.688,94.150 190.915 C 94.150 191.142,94.336 191.328,94.563 191.328 C 94.838 191.328,94.976 191.604,94.976 192.154 C 94.976 192.608,95.102 192.980,95.257 192.980 C 95.412 192.980,95.688 193.321,95.871 193.737 C 96.054 194.153,96.361 194.593,96.553 194.714 C 96.745 194.835,96.903 195.242,96.903 195.618 C 96.903 195.993,97.089 196.372,97.316 196.459 C 97.551 196.550,97.729 196.960,97.729 197.414 C 97.729 197.939,97.870 198.211,98.142 198.211 C 98.448 198.211,98.555 198.533,98.555 199.458 C 98.555 200.313,98.685 200.755,98.968 200.864 C 99.283 200.985,99.381 201.503,99.381 203.058 C 99.381 204.683,99.464 205.093,99.794 205.093 C 100.406 205.093,100.406 211.289,99.794 211.524 C 99.481 211.644,99.381 212.152,99.381 213.618 C 99.381 215.155,99.296 215.554,98.968 215.554 C 98.663 215.554,98.555 215.872,98.555 216.763 C 98.555 217.584,98.422 218.024,98.142 218.131 C 97.859 218.240,97.729 218.682,97.729 219.537 C 97.729 220.462,97.622 220.785,97.316 220.785 C 97.041 220.785,96.903 221.060,96.903 221.610 C 96.903 222.253,96.781 222.436,96.352 222.436 C 96.046 222.436,95.802 222.620,95.802 222.849 C 95.802 223.076,95.688 223.262,95.548 223.262 C 95.409 223.262,95.213 223.634,95.114 224.088 C 95.014 224.542,94.756 224.914,94.541 224.914 C 94.326 224.914,94.150 225.148,94.150 225.435 C 94.150 225.722,93.964 226.028,93.737 226.115 C 93.510 226.202,93.324 226.587,93.324 226.970 C 93.324 227.406,93.170 227.667,92.911 227.667 C 92.684 227.667,92.498 227.853,92.498 228.080 C 92.498 228.307,92.312 228.493,92.085 228.493 C 91.858 228.493,91.672 228.679,91.672 228.906 C 91.672 229.133,91.487 229.319,91.259 229.319 C 91.032 229.319,90.847 229.504,90.847 229.732 C 90.847 229.959,90.661 230.145,90.434 230.145 C 90.206 230.145,90.021 230.330,90.021 230.557 C 90.021 230.785,89.831 230.970,89.599 230.970 C 89.367 230.970,89.106 231.156,89.019 231.383 C 88.932 231.610,88.654 231.796,88.401 231.796 C 88.148 231.796,87.567 232.137,87.111 232.553 C 86.654 232.970,85.945 233.463,85.536 233.649 C 85.126 233.835,84.790 234.113,84.790 234.268 C 84.790 234.423,84.604 234.549,84.377 234.549 C 84.150 234.549,83.964 234.735,83.964 234.962 C 83.964 235.261,83.657 235.375,82.854 235.375 C 82.122 235.375,81.691 235.515,81.586 235.788 C 81.488 236.043,81.070 236.201,80.494 236.201 C 79.847 236.201,79.560 236.328,79.560 236.614 C 79.560 236.931,79.207 237.027,78.037 237.027 C 76.937 237.027,76.470 237.142,76.356 237.440 C 76.223 237.787,75.369 237.853,71.030 237.853 C 66.772 237.853,65.802 237.780,65.520 237.440 C 65.293 237.166,64.677 237.027,63.697 237.027 C 62.564 237.027,62.216 236.930,62.216 236.614 C 62.216 236.308,61.895 236.201,60.977 236.201 C 60.060 236.201,59.738 236.094,59.738 235.788 C 59.738 235.513,59.463 235.375,58.913 235.375 C 58.362 235.375,58.087 235.237,58.087 234.962 C 58.087 234.687,57.811 234.549,57.261 234.549 C 56.736 234.549,56.435 234.409,56.435 234.163 C 56.435 233.951,56.094 233.634,55.678 233.459 C 54.227 232.849,53.682 232.489,53.682 232.144 C 53.682 231.953,53.509 231.796,53.299 231.796 C 53.088 231.796,52.844 231.610,52.757 231.383 C 52.669 231.156,52.285 230.970,51.901 230.970 C 51.465 230.970,51.204 230.816,51.204 230.557 C 51.204 230.330,51.019 230.145,50.791 230.145 C 50.564 230.145,50.379 229.959,50.379 229.732 C 50.379 229.504,50.193 229.319,49.966 229.319 C 49.738 229.319,49.553 229.133,49.553 228.906 C 49.553 228.679,49.377 228.493,49.162 228.493 C 48.946 228.493,48.689 228.121,48.589 227.667 C 48.489 227.213,48.232 226.841,48.017 226.841 C 47.802 226.841,47.626 226.651,47.626 226.419 C 47.626 226.188,47.440 225.927,47.213 225.839 C 46.986 225.752,46.800 225.508,46.800 225.297 C 46.800 225.087,46.614 224.914,46.387 224.914 C 46.111 224.914,45.974 224.639,45.974 224.088 C 45.974 223.538,45.836 223.262,45.561 223.262 C 45.286 223.262,45.148 222.987,45.148 222.436 C 45.148 221.886,45.010 221.610,44.735 221.610 C 44.463 221.610,44.322 221.338,44.322 220.814 C 44.322 220.360,44.145 219.949,43.909 219.859 C 43.638 219.755,43.496 219.325,43.496 218.605 C 43.496 217.963,43.339 217.417,43.116 217.288 C 42.872 217.147,42.695 216.387,42.618 215.159 C 42.548 214.022,42.367 213.205,42.172 213.140 C 41.651 212.966,41.736 204.571,42.266 203.870 C 42.514 203.542,42.670 202.716,42.670 201.728 C 42.670 200.553,42.781 200.078,43.083 199.962 C 43.364 199.854,43.496 199.415,43.496 198.594 C 43.496 197.703,43.605 197.385,43.909 197.385 C 44.181 197.385,44.322 197.113,44.322 196.588 C 44.322 196.134,44.500 195.724,44.735 195.633 C 44.962 195.546,45.148 195.175,45.148 194.808 C 45.148 194.440,45.334 194.069,45.561 193.982 C 45.802 193.889,45.974 193.477,45.974 192.989 C 45.974 192.430,46.111 192.154,46.387 192.154 C 46.614 192.154,46.800 191.968,46.800 191.741 C 46.800 191.514,46.986 191.328,47.213 191.328 C 47.488 191.328,47.626 191.053,47.626 190.502 C 47.626 189.860,47.748 189.677,48.176 189.677 C 48.482 189.677,48.727 189.493,48.727 189.264 C 48.727 189.036,48.913 188.851,49.140 188.851 C 49.367 188.851,49.553 188.725,49.553 188.571 C 49.553 188.417,50.110 187.757,50.791 187.104 C 51.473 186.451,52.030 185.772,52.030 185.594 C 52.030 185.417,52.216 185.272,52.443 185.272 C 52.670 185.272,52.856 185.086,52.856 184.859 C 52.856 184.584,53.131 184.446,53.682 184.446 C 54.233 184.446,54.508 184.308,54.508 184.033 C 54.508 183.806,54.698 183.620,54.929 183.620 C 55.161 183.620,55.422 183.434,55.510 183.207 C 55.597 182.980,55.968 182.794,56.335 182.794 C 56.702 182.794,57.074 182.608,57.161 182.381 C 57.248 182.154,57.620 181.968,57.987 181.968 C 58.354 181.968,58.726 181.783,58.813 181.555 C 58.903 181.320,59.314 181.142,59.768 181.142 C 60.292 181.142,60.564 181.001,60.564 180.730 C 60.564 180.423,60.886 180.317,61.812 180.317 C 62.667 180.317,63.109 180.187,63.218 179.904 C 63.333 179.603,63.807 179.491,64.964 179.491 C 67.079 179.491,68.273 179.230,68.273 178.768 C 68.273 178.153,73.191 178.233,73.646 178.856 M164.900 178.770 C 164.900 179.302,165.779 179.483,168.381 179.487 C 170.117 179.490,170.658 179.584,170.781 179.904 C 170.889 180.185,171.329 180.317,172.157 180.317 C 172.986 180.317,173.426 180.449,173.534 180.730 C 173.638 181.002,174.070 181.142,174.802 181.142 C 175.605 181.142,175.912 181.257,175.912 181.555 C 175.912 181.831,176.187 181.968,176.738 181.968 C 177.288 181.968,177.564 182.106,177.564 182.381 C 177.564 182.608,177.753 182.794,177.985 182.794 C 178.217 182.794,178.478 182.980,178.565 183.207 C 178.656 183.443,179.066 183.620,179.520 183.620 C 180.045 183.620,180.317 183.761,180.317 184.033 C 180.317 184.260,180.502 184.446,180.730 184.446 C 180.957 184.446,181.142 184.632,181.142 184.859 C 181.142 185.086,181.328 185.272,181.555 185.272 C 181.783 185.272,181.968 185.396,181.968 185.547 C 181.968 185.857,182.958 186.913,183.276 186.943 C 183.390 186.954,183.978 187.565,184.584 188.300 C 185.189 189.035,185.840 189.646,186.029 189.657 C 186.218 189.668,186.373 189.862,186.373 190.089 C 186.373 190.317,186.559 190.502,186.786 190.502 C 187.013 190.502,187.199 190.688,187.199 190.915 C 187.199 191.142,187.385 191.328,187.612 191.328 C 187.884 191.328,188.025 191.600,188.025 192.125 C 188.025 192.579,188.202 192.989,188.438 193.080 C 188.665 193.167,188.851 193.413,188.851 193.626 C 188.851 193.839,189.036 194.168,189.264 194.357 C 189.491 194.545,189.677 194.932,189.677 195.216 C 189.677 195.500,189.862 195.733,190.089 195.733 C 190.388 195.733,190.502 196.040,190.502 196.843 C 190.502 197.575,190.643 198.006,190.915 198.111 C 191.168 198.208,191.328 198.625,191.328 199.184 C 191.328 199.687,191.514 200.284,191.741 200.511 C 191.984 200.754,192.154 201.427,192.154 202.148 C 192.154 203.919,192.442 205.093,192.877 205.093 C 193.179 205.093,193.255 205.819,193.255 208.672 C 193.255 211.535,193.179 212.251,192.875 212.251 C 192.393 212.251,192.163 213.102,192.158 214.905 C 192.155 215.907,192.033 216.367,191.741 216.479 C 191.471 216.583,191.328 217.012,191.328 217.718 C 191.328 218.425,191.185 218.853,190.915 218.957 C 190.679 219.048,190.502 219.459,190.502 219.921 C 190.502 220.382,190.326 220.793,190.089 220.884 C 189.862 220.971,189.677 221.343,189.677 221.710 C 189.677 222.077,189.491 222.449,189.264 222.536 C 189.036 222.623,188.851 223.008,188.851 223.391 C 188.851 223.827,188.696 224.088,188.438 224.088 C 188.162 224.088,188.025 224.363,188.025 224.914 C 188.025 225.465,187.887 225.740,187.612 225.740 C 187.385 225.740,187.199 225.912,187.199 226.123 C 187.199 226.334,187.013 226.578,186.786 226.665 C 186.559 226.752,186.373 227.013,186.373 227.245 C 186.373 227.477,186.254 227.667,186.108 227.667 C 185.962 227.667,185.091 228.410,184.171 229.319 C 183.251 230.227,182.379 230.970,182.233 230.970 C 182.088 230.970,181.968 231.156,181.968 231.383 C 181.968 231.610,181.783 231.796,181.555 231.796 C 181.328 231.796,181.142 231.972,181.142 232.187 C 181.142 232.402,180.771 232.660,180.317 232.760 C 179.862 232.860,179.491 233.041,179.491 233.163 C 179.491 233.284,179.243 233.449,178.940 233.528 C 178.637 233.607,178.390 233.869,178.390 234.110 C 178.390 234.414,178.136 234.549,177.564 234.549 C 177.013 234.549,176.738 234.687,176.738 234.962 C 176.738 235.235,176.465 235.375,175.932 235.375 C 175.488 235.375,174.940 235.561,174.712 235.788 C 174.485 236.015,173.919 236.201,173.454 236.201 C 172.886 236.201,172.608 236.336,172.608 236.614 C 172.608 236.944,172.194 237.027,170.535 237.027 C 168.946 237.027,168.425 237.123,168.303 237.440 C 168.173 237.780,167.464 237.853,164.301 237.853 C 161.250 237.853,160.371 237.767,160.043 237.440 C 159.762 237.158,159.067 237.027,157.861 237.027 C 156.471 237.027,156.091 236.938,156.091 236.614 C 156.091 236.308,155.770 236.201,154.852 236.201 C 153.934 236.201,153.613 236.094,153.613 235.788 C 153.613 235.512,153.337 235.375,152.779 235.375 C 152.291 235.375,151.878 235.204,151.786 234.962 C 151.695 234.727,151.285 234.549,150.831 234.549 C 150.301 234.549,150.034 234.409,150.034 234.129 C 150.034 233.883,149.693 233.641,149.209 233.544 C 148.754 233.454,148.383 233.209,148.383 233.001 C 148.383 232.792,148.255 232.622,148.098 232.622 C 147.942 232.622,147.450 232.251,147.006 231.796 C 146.562 231.342,145.947 230.970,145.639 230.970 C 145.325 230.970,145.079 230.789,145.079 230.557 C 145.079 230.328,144.834 230.145,144.529 230.145 C 144.223 230.145,143.978 229.961,143.978 229.732 C 143.978 229.504,143.806 229.319,143.595 229.319 C 143.384 229.319,143.134 229.009,143.039 228.630 C 142.944 228.252,142.745 227.942,142.596 227.942 C 142.448 227.942,142.326 227.694,142.326 227.392 C 142.326 227.086,142.143 226.841,141.913 226.841 C 141.686 226.841,141.500 226.651,141.500 226.419 C 141.500 226.188,141.326 225.931,141.112 225.849 C 140.899 225.767,140.649 225.399,140.556 225.032 C 140.464 224.664,140.267 224.363,140.119 224.363 C 139.970 224.363,139.849 224.116,139.849 223.813 C 139.849 223.507,139.665 223.262,139.436 223.262 C 139.160 223.262,139.023 222.987,139.023 222.436 C 139.023 221.886,138.885 221.610,138.610 221.610 C 138.337 221.610,138.197 221.337,138.197 220.803 C 138.197 220.238,138.032 219.943,137.646 219.821 C 137.205 219.681,137.096 219.405,137.096 218.426 C 137.096 217.525,136.988 217.206,136.683 217.206 C 136.362 217.206,136.270 216.839,136.270 215.554 C 136.270 214.269,136.178 213.902,135.857 213.902 C 135.504 213.902,135.444 213.138,135.444 208.672 C 135.444 204.206,135.504 203.441,135.857 203.441 C 136.178 203.441,136.270 203.073,136.270 201.781 C 136.270 200.559,136.379 200.079,136.683 199.962 C 136.961 199.855,137.096 199.419,137.096 198.626 C 137.096 197.680,137.204 197.421,137.646 197.305 C 138.011 197.210,138.197 196.929,138.197 196.476 C 138.197 196.100,138.383 195.721,138.610 195.633 C 138.837 195.546,139.023 195.175,139.023 194.808 C 139.023 194.440,139.209 194.069,139.436 193.982 C 139.677 193.889,139.849 193.477,139.849 192.989 C 139.849 192.430,139.985 192.154,140.262 192.154 C 140.489 192.154,140.674 191.968,140.674 191.741 C 140.674 191.514,140.860 191.328,141.087 191.328 C 141.315 191.328,141.500 191.156,141.500 190.945 C 141.500 190.734,141.686 190.490,141.913 190.403 C 142.140 190.316,142.326 190.055,142.326 189.823 C 142.326 189.591,142.448 189.401,142.596 189.401 C 142.745 189.401,142.944 189.092,143.039 188.713 C 143.134 188.334,143.384 188.025,143.595 188.025 C 143.806 188.025,143.978 187.839,143.978 187.612 C 143.978 187.385,144.133 187.195,144.322 187.190 C 144.511 187.185,145.094 186.752,145.616 186.227 C 146.139 185.702,146.731 185.272,146.933 185.272 C 147.134 185.272,147.370 185.086,147.457 184.859 C 147.544 184.632,147.788 184.446,147.999 184.446 C 148.210 184.446,148.383 184.274,148.383 184.063 C 148.383 183.852,148.692 183.602,149.071 183.507 C 149.449 183.412,149.759 183.213,149.759 183.064 C 149.759 182.916,150.007 182.794,150.310 182.794 C 150.616 182.794,150.860 182.611,150.860 182.381 C 150.860 182.105,151.137 181.968,151.695 181.968 C 152.183 181.968,152.595 181.797,152.688 181.555 C 152.777 181.323,153.187 181.142,153.623 181.142 C 154.050 181.142,154.565 180.977,154.768 180.774 C 154.970 180.572,155.689 180.332,156.364 180.242 C 157.040 180.151,157.637 179.945,157.691 179.784 C 157.748 179.613,158.614 179.489,159.761 179.488 C 162.394 179.484,163.799 179.233,163.799 178.766 C 163.799 178.559,164.047 178.390,164.350 178.390 C 164.652 178.390,164.900 178.561,164.900 178.770 " stroke="none" fill="#040404" fill-rule="evenodd"></path><path id="path2" d="M334.614 70.475 C 334.614 91.597,334.647 100.237,334.687 89.677 C 334.727 79.116,334.727 61.834,334.687 51.273 C 334.647 40.712,334.614 49.353,334.614 70.475 M352.872 32.416 C 352.450 33.442,352.980 108.770,353.410 108.688 C 353.862 108.601,353.890 106.459,353.920 70.471 C 353.938 49.503,353.898 32.626,353.832 32.966 C 353.766 33.307,353.593 33.586,353.448 33.586 C 352.994 33.586,352.825 32.717,353.229 32.461 C 353.478 32.303,353.498 32.216,353.285 32.213 C 353.105 32.211,352.919 32.302,352.872 32.416 " stroke="none" fill="#2c040c" fill-rule="evenodd"></path><path id="path3" d="M333.563 32.393 C 333.009 32.946,333.374 108.741,333.930 108.741 C 334.478 108.741,334.480 108.557,334.480 70.475 C 334.480 31.407,334.482 31.474,333.563 32.393 M352.974 32.943 C 353.108 33.634,353.751 33.729,353.751 33.058 C 353.751 32.720,353.573 32.485,353.318 32.485 C 353.061 32.485,352.921 32.672,352.974 32.943 " stroke="none" fill="#3c040c" fill-rule="evenodd"></path><path id="path4" d="M334.777 33.173 C 334.789 33.627,334.862 33.844,334.938 33.655 C 335.045 33.389,337.063 33.310,343.720 33.310 L 352.364 33.310 352.515 33.930 C 352.599 34.270,352.632 51.242,352.589 71.645 C 352.547 92.048,352.607 108.741,352.722 108.741 C 352.838 108.741,352.927 91.552,352.921 70.544 L 352.910 32.347 343.833 32.347 L 334.756 32.347 334.777 33.173 " stroke="none" fill="#1c0404" fill-rule="evenodd"></path></g></svg>